<?xml version="1.0" standalone="no"?>
<!DOCTYPE svg PUBLIC "-//W3C//DTD SVG 20010904//EN"
 "http://www.w3.org/TR/2001/REC-SVG-20010904/DTD/svg10.dtd">
<svg version="1.0" xmlns="http://www.w3.org/2000/svg"
 width="2000.000000pt" height="2000.000000pt" viewBox="0 0 2000.000000 2000.000000"
 preserveAspectRatio="xMidYMid meet">
<metadata>
Created by potrace 1.11, written by Peter Selinger 2001-2013
</metadata>
<g transform="translate(0.000000,2000.000000) scale(0.100000,-0.100000)"
fill="#000000" stroke="none">
<path d="M5058 18461 c-7 -14 -34 -61 -60 -105 -26 -44 -44 -84 -41 -89 3 -6
2 -7 -4 -4 -10 6 -38 -40 -35 -55 1 -5 -2 -8 -8 -8 -5 0 -10 -7 -10 -15 0 -8
-4 -15 -10 -15 -5 0 -10 -5 -10 -10 0 -6 -11 -28 -25 -50 -14 -21 -26 -45 -27
-52 -2 -7 -8 -17 -13 -24 -6 -6 -42 -65 -80 -133 -70 -122 -87 -151 -131 -227
-13 -22 -22 -44 -19 -47 3 -4 2 -5 -2 -2 -3 3 -18 -16 -33 -42 -15 -27 -41
-73 -59 -103 -17 -30 -37 -66 -44 -80 -6 -14 -14 -27 -18 -30 -14 -11 -38 -68
-31 -75 4 -5 2 -6 -4 -2 -10 6 -81 -110 -76 -125 1 -5 -3 -8 -8 -8 -6 0 -10
-7 -10 -15 0 -8 -3 -15 -7 -15 -5 0 -13 -10 -19 -23 -23 -48 -58 -112 -64
-117 -12 -11 -40 -60 -34 -60 4 0 0 -7 -7 -16 -33 -40 -79 -130 -71 -140 4 -5
3 -6 -2 -2 -9 8 -106 -151 -106 -172 0 -5 -4 -10 -9 -10 -10 0 -37 -61 -33
-75 2 -5 0 -7 -4 -2 -7 7 -76 -105 -74 -119 1 -4 -2 -10 -7 -13 -14 -10 -74
-111 -65 -111 4 0 2 -4 -4 -8 -14 -10 -217 -364 -217 -379 0 -7 -3 -10 -7 -8
-4 2 -17 -18 -30 -46 -13 -27 -30 -55 -37 -60 -7 -6 -10 -15 -7 -20 3 -5 1 -9
-5 -9 -10 0 -27 -39 -23 -53 1 -5 -2 -6 -8 -2 -8 5 -15 -10 -7 -18 1 -1 -7
-12 -18 -24 -11 -12 -29 -39 -40 -60 -10 -21 -28 -50 -38 -65 -10 -16 -15 -28
-10 -28 4 0 3 -4 -3 -8 -9 -6 -58 -88 -121 -202 -14 -25 -38 -65 -53 -90 -67
-110 -193 -336 -193 -347 0 -7 -3 -10 -7 -8 -3 2 -15 -13 -25 -33 -11 -20 -34
-61 -52 -91 -18 -30 -29 -59 -26 -64 3 -6 1 -7 -5 -3 -7 4 -14 -3 -18 -19 -3
-14 -9 -25 -13 -25 -4 0 -13 -16 -21 -35 -8 -19 -16 -35 -19 -35 -3 0 -22 -31
-41 -68 -19 -37 -37 -69 -40 -72 -14 -14 -39 -60 -33 -60 5 0 3 -4 -3 -8 -15
-10 -74 -118 -69 -126 3 -3 2 -4 -1 -1 -6 4 -84 -119 -84 -131 0 -3 -11 -22
-25 -44 -14 -22 -22 -40 -18 -40 5 0 0 -5 -10 -11 -9 -6 -15 -14 -12 -20 4 -5
1 -9 -4 -9 -6 0 -11 -6 -11 -14 0 -7 -7 -19 -15 -26 -9 -7 -13 -20 -10 -29 3
-8 3 -12 -1 -8 -8 7 -22 -15 -50 -73 -9 -19 -20 -37 -24 -40 -4 -3 -22 -32
-40 -65 -18 -33 -43 -76 -56 -96 -13 -20 -20 -40 -17 -43 4 -3 1 -6 -5 -6 -11
0 -28 -38 -24 -53 1 -5 -1 -6 -6 -3 -7 4 -42 -54 -42 -69 1 -3 -6 -13 -15 -21
-8 -9 -12 -21 -8 -27 3 -7 3 -9 -2 -5 -8 8 -107 -157 -108 -179 0 -7 -3 -11
-5 -8 -6 5 -80 -124 -80 -139 0 -5 -4 -12 -9 -15 -18 -12 -73 -118 -65 -126 4
-5 2 -5 -5 -1 -11 6 -30 -29 -25 -47 1 -5 -2 -6 -8 -2 -9 5 -12 -1 -9 -21 0
-4 -3 -10 -9 -13 -12 -8 -97 -154 -94 -163 1 -5 -2 -8 -7 -8 -11 0 -26 -40
-22 -55 1 -5 -1 -7 -5 -2 -7 6 -63 -83 -67 -108 -1 -5 -5 -12 -8 -15 -17 -15
-57 -85 -53 -92 3 -4 1 -8 -4 -8 -7 0 -56 -76 -57 -90 0 -3 -8 -16 -16 -30
-41 -64 -79 -132 -82 -142 -1 -6 -8 -19 -16 -29 -8 -10 -28 -42 -45 -72 -45
-80 -119 -209 -133 -232 -7 -11 -18 -31 -25 -45 -7 -14 -15 -27 -19 -30 -9 -7
-40 -68 -38 -76 0 -4 -3 -10 -8 -13 -12 -8 -79 -126 -73 -127 3 0 -3 -8 -13
-18 -9 -10 -14 -23 -10 -29 3 -7 2 -9 -2 -5 -8 8 -78 -107 -78 -129 0 -7 -3
-10 -7 -8 -7 4 -34 -45 -30 -54 1 -2 -2 -7 -7 -10 -13 -9 -176 -294 -176 -308
0 -7 -3 -10 -7 -8 -6 4 -40 -57 -40 -70 1 -3 -6 -13 -15 -21 -8 -9 -15 -21
-15 -29 0 -7 -4 -15 -8 -17 -10 -4 -102 -164 -102 -177 0 -5 -3 -11 -8 -13 -6
-3 -63 -97 -124 -207 -11 -20 -25 -42 -30 -48 -6 -7 -7 -13 -2 -13 5 0 4 -4
-2 -8 -14 -10 -150 -245 -146 -254 1 -5 -2 -8 -6 -8 -10 0 -37 -50 -34 -62 1
-5 -2 -8 -8 -8 -17 0 -11 -18 12 -41 13 -12 16 -18 8 -14 -13 8 -13 7 0 -11 8
-10 19 -22 23 -25 5 -3 8 -9 7 -13 -2 -10 91 -170 104 -178 6 -4 8 -8 4 -8 -4
0 10 -29 32 -65 22 -36 40 -70 40 -75 0 -6 7 -13 15 -16 8 -4 13 -10 10 -14
-3 -5 7 -28 23 -52 15 -24 37 -60 47 -80 10 -20 23 -34 27 -32 5 3 7 2 6 -3
-6 -17 25 -73 36 -66 6 3 8 3 4 -2 -8 -9 31 -85 44 -85 4 0 7 -4 6 -8 -4 -12
83 -162 93 -162 5 0 8 -3 7 -7 -4 -12 23 -73 32 -73 4 0 11 -11 14 -25 4 -16
11 -23 18 -19 6 4 8 3 5 -3 -4 -6 6 -30 22 -55 16 -25 32 -55 36 -67 3 -12 11
-18 17 -15 6 4 8 3 5 -3 -3 -5 16 -47 43 -93 28 -46 50 -84 50 -85 0 -15 79
-133 85 -127 5 4 5 2 1 -5 -7 -12 27 -77 36 -68 2 3 5 -1 5 -8 0 -16 122 -229
137 -239 6 -4 7 -8 2 -8 -5 0 -2 -8 6 -17 8 -10 28 -44 44 -75 16 -32 32 -58
37 -58 4 0 7 -4 7 -9 0 -13 82 -155 94 -163 6 -4 7 -8 3 -8 -4 0 8 -25 28 -55
19 -31 35 -57 35 -60 0 -2 20 -39 45 -81 25 -41 45 -79 45 -83 0 -4 9 -17 20
-29 11 -12 20 -24 20 -27 -1 -7 70 -128 79 -135 3 -3 7 -10 8 -15 4 -23 50
-94 57 -88 4 5 6 3 5 -2 -5 -17 12 -55 23 -55 6 0 9 -3 6 -6 -6 -5 106 -203
120 -214 4 -3 8 -10 9 -16 3 -17 115 -208 127 -216 6 -4 7 -8 3 -8 -5 0 0 -12
11 -28 10 -15 22 -34 25 -42 4 -8 20 -37 37 -65 17 -27 41 -70 55 -95 53 -94
78 -135 87 -141 5 -3 9 -8 8 -10 -4 -9 24 -59 33 -59 6 0 8 -3 4 -6 -3 -3 5
-24 19 -45 13 -21 24 -40 24 -43 0 -15 69 -114 75 -108 5 4 5 1 1 -6 -4 -7 2
-25 13 -41 12 -16 21 -34 21 -40 0 -6 4 -11 8 -11 4 0 13 -12 20 -27 6 -16 20
-41 30 -58 22 -35 51 -86 99 -172 19 -35 39 -63 45 -63 5 0 7 -4 3 -9 -3 -5 3
-17 12 -27 10 -10 17 -20 17 -23 -3 -12 20 -51 29 -51 6 0 7 -3 4 -7 -4 -3 -1
-13 6 -21 12 -15 68 -111 109 -189 12 -24 26 -43 30 -43 4 0 8 -5 8 -11 0 -6
23 -49 50 -96 28 -47 50 -89 50 -94 0 -5 5 -9 10 -9 6 0 10 -4 10 -9 0 -5 23
-49 51 -98 29 -48 63 -108 77 -133 59 -107 107 -186 117 -192 6 -5 6 -8 0 -8
-5 0 -1 -7 10 -16 11 -8 19 -17 17 -20 -7 -11 42 -93 52 -87 6 3 8 3 4 -2 -8
-8 5 -32 130 -247 43 -76 81 -136 83 -133 3 2 6 -5 6 -17 1 -12 6 -24 10 -27
5 -3 33 -49 63 -101 29 -52 58 -98 63 -101 5 -3 8 -10 8 -15 -1 -5 4 -16 11
-25 7 -8 14 -20 15 -26 3 -14 76 -137 86 -144 5 -3 8 -10 8 -15 -1 -5 7 -18
16 -29 9 -11 16 -20 14 -20 -2 0 3 -12 10 -27 7 -16 17 -28 22 -28 6 0 8 -3 4
-6 -6 -6 50 -104 67 -116 6 -4 7 -8 2 -8 -6 0 -1 -7 10 -16 10 -8 13 -13 7 -9
-9 4 -11 1 -7 -9 3 -9 10 -16 14 -16 4 0 11 -11 14 -25 4 -14 10 -24 15 -21 4
3 8 0 8 -7 1 -23 60 -117 68 -110 4 5 6 4 3 -2 -7 -12 27 -77 36 -68 3 3 6 -1
6 -11 0 -10 23 -56 51 -104 29 -48 63 -107 77 -132 14 -25 29 -48 34 -51 6 -3
9 -9 9 -13 -3 -20 0 -26 11 -20 6 4 8 3 4 -4 -3 -6 1 -18 10 -26 8 -9 13 -16
9 -16 -3 0 3 -13 14 -29 12 -16 21 -31 21 -34 0 -3 18 -35 40 -71 22 -36 40
-70 40 -75 0 -6 7 -14 16 -19 9 -5 15 -12 15 -15 -1 -13 33 -77 41 -77 4 0 8
-6 8 -14 0 -8 7 -22 16 -30 8 -9 13 -16 9 -16 -3 0 3 -13 14 -29 12 -16 21
-32 21 -35 0 -4 12 -25 27 -49 14 -23 26 -44 25 -47 0 -3 5 -12 11 -20 13 -16
27 -39 67 -113 15 -26 31 -44 36 -40 5 5 6 4 2 -1 -8 -9 36 -95 54 -107 6 -3
10 -10 10 -15 -1 -16 145 -264 151 -259 4 3 5 2 2 -1 -4 -7 45 -101 95 -180
l26 -41 4927 0 4927 0 12 28 c7 16 16 29 20 29 5 0 8 4 8 10 0 5 32 64 72 132
39 68 71 128 71 135 0 7 3 10 7 8 7 -4 45 65 42 78 -1 4 3 7 8 7 6 0 10 6 10
14 0 8 4 16 8 18 4 2 37 54 72 117 36 63 75 130 87 150 12 20 30 52 40 71 9
19 32 59 51 89 19 29 35 60 36 68 1 8 7 18 12 21 6 4 26 36 45 72 19 36 37 67
40 70 14 12 38 68 31 75 -4 5 -2 5 4 2 9 -5 48 57 42 66 -1 1 6 11 15 22 9 11
17 24 16 29 0 5 3 12 8 15 15 10 73 117 68 124 -3 4 -2 5 2 2 7 -5 75 109 73
121 -1 4 2 10 7 13 17 12 67 106 64 121 -1 8 0 12 5 8 7 -8 104 152 104 172 0
5 4 10 9 10 10 0 37 61 33 75 -2 6 0 7 4 2 7 -7 76 105 74 119 -1 4 2 10 7 13
14 10 74 111 65 111 -4 0 -2 4 4 8 6 4 66 104 134 222 68 118 134 232 147 252
13 21 20 38 16 38 -5 0 -3 4 3 8 12 9 226 378 224 388 -1 4 2 10 7 13 14 10
74 111 65 111 -4 0 -2 4 4 8 13 8 146 238 144 248 -1 4 2 10 7 13 15 10 73
117 68 124 -3 4 -2 5 2 2 3 -3 26 30 51 73 24 42 52 91 62 109 10 17 16 34 13
37 -4 3 -2 6 4 6 5 0 18 17 29 37 10 21 23 42 27 48 16 21 127 218 127 227 0
4 5 8 11 8 6 0 9 6 6 14 -3 8 0 16 6 19 7 3 19 17 27 33 8 16 36 66 63 110 26
45 47 87 47 93 0 6 4 11 8 11 4 0 18 19 30 42 12 24 33 61 47 83 14 22 28 47
32 55 4 8 19 36 35 63 15 26 25 47 23 47 -3 0 2 8 10 18 8 9 15 21 14 26 0 5
3 12 9 15 5 3 31 44 57 91 27 47 57 97 66 111 10 14 16 29 12 33 -3 3 -1 6 6
6 7 0 9 5 6 10 -3 6 0 13 8 16 12 4 28 37 26 53 0 2 4 7 9 10 13 9 262 441
254 441 -4 0 -2 4 4 8 14 9 127 203 127 219 0 7 4 10 9 7 7 -5 10 3 7 22 0 4
3 10 8 13 12 8 74 111 68 111 -3 0 4 10 15 22 11 12 18 29 15 37 -3 9 -3 12 1
8 9 -8 54 64 48 75 -3 5 -1 8 4 8 7 0 56 76 57 90 0 3 13 25 29 50 15 25 35
55 42 68 8 12 11 22 7 22 -5 0 -3 4 3 8 14 9 97 154 97 169 0 7 4 10 9 7 4 -3
8 0 8 5 0 23 2 27 22 49 12 12 18 22 14 22 -4 0 -2 6 4 13 16 19 60 87 60 93
0 3 22 43 50 90 27 46 46 84 42 84 -4 0 1 5 11 11 9 5 17 14 17 20 0 5 11 27
25 49 14 22 22 40 18 40 -5 0 -3 4 3 8 10 6 53 77 110 182 10 19 25 40 32 48
15 17 15 25 0 17 -7 -4 -5 0 5 8 9 8 17 17 17 21 0 4 5 12 10 19 23 26 78 127
67 121 -7 -3 -5 0 4 8 8 7 29 38 45 68 16 30 31 57 34 60 11 10 100 170 100
179 0 5 4 11 9 13 5 2 11 10 13 18 2 8 9 21 16 28 7 8 9 18 6 24 -4 6 -3 8 3
5 8 -5 48 61 43 72 -1 2 2 7 7 10 9 6 65 99 118 196 16 28 43 74 61 103 19 28
31 52 28 52 -3 0 6 15 20 33 14 19 23 37 19 40 -3 4 0 7 7 7 7 0 10 3 7 6 -3
4 2 18 13 32 11 13 17 29 13 36 -3 6 -2 8 2 4 5 -5 21 14 37 42 24 42 26 53
16 75 -6 14 -15 25 -20 25 -4 0 -8 4 -8 9 0 5 -22 48 -50 96 -28 48 -50 91
-50 96 0 5 -4 9 -10 9 -5 0 -10 4 -10 9 0 11 -112 204 -123 212 -5 3 -8 8 -7
10 5 11 -24 57 -33 52 -6 -3 -7 -1 -3 5 8 13 -28 75 -38 64 -4 -4 -6 -2 -5 3
5 16 -11 55 -22 55 -6 0 -8 4 -5 8 3 5 -4 19 -15 30 -10 12 -20 25 -21 29 -2
20 -32 72 -38 68 -4 -2 -7 1 -7 8 0 17 -109 208 -115 202 -3 -3 -5 1 -5 8 -1
14 -98 188 -104 184 -2 -1 -3 0 -2 2 5 7 -49 95 -66 109 -9 8 -11 11 -4 8 6
-3 -14 38 -45 93 -32 54 -60 97 -63 95 -3 -2 -6 3 -6 11 0 14 -82 156 -96 166
-5 3 -8 9 -7 13 2 11 -74 145 -81 141 -3 -2 -6 2 -6 8 0 7 -41 84 -91 170 -51
86 -92 161 -92 167 0 6 -4 8 -10 5 -5 -3 -10 1 -10 10 0 16 -28 65 -43 76 -5
3 -8 9 -7 13 3 11 -83 156 -92 156 -5 0 -7 4 -3 9 3 5 -2 17 -11 25 -8 9 -12
16 -7 16 4 0 1 6 -8 13 -17 13 -17 14 -26 47 -3 11 -9 20 -14 20 -5 0 -9 7 -9
15 0 8 -5 15 -12 15 -6 0 -9 3 -6 6 3 3 -9 31 -28 61 -19 31 -34 61 -34 66 0
4 -5 5 -10 2 -6 -4 -9 -3 -8 2 4 14 -13 53 -23 53 -5 0 -8 3 -7 8 4 12 -68
133 -75 127 -4 -3 -5 -2 -2 1 5 8 -36 84 -45 84 -4 0 -7 6 -7 13 0 16 -62 120
-77 129 -6 4 -7 8 -3 8 10 0 -31 71 -47 82 -6 4 -7 8 -2 8 5 0 4 6 -2 13 -5 6
-25 39 -42 72 -18 33 -39 67 -46 76 -8 8 -14 21 -14 28 0 7 -5 9 -12 5 -6 -4
-8 -3 -4 4 7 11 -27 76 -36 67 -2 -3 -5 1 -5 8 0 7 -32 68 -71 136 -40 67 -72
124 -72 125 0 15 -69 114 -75 108 -5 -4 -6 -2 -2 3 8 15 -67 147 -78 138 -4
-5 -5 -3 -2 3 3 6 -3 26 -15 45 -12 19 -30 50 -41 69 -81 145 -142 246 -149
251 -6 3 -8 8 -7 10 2 2 -9 24 -23 49 -14 25 -48 84 -75 132 -28 49 -53 86
-56 83 -4 -3 -5 -2 -2 1 6 9 -64 135 -85 152 -12 11 -12 12 0 6 13 -6 12 -4
-1 12 -9 10 -37 57 -64 104 -26 47 -51 87 -54 90 -3 3 -7 12 -9 20 -2 8 -10
22 -18 31 -8 8 -14 18 -14 22 0 10 -73 131 -83 138 -5 3 -7 8 -6 10 5 7 -67
129 -73 124 -2 -3 -5 1 -5 8 0 10 -59 118 -108 198 -5 9 -21 36 -34 60 -13 24
-31 50 -40 57 -9 8 -11 11 -4 8 6 -4 -5 22 -25 58 -20 35 -40 62 -43 60 -3 -2
-6 2 -6 9 0 7 -26 57 -58 112 -32 55 -69 120 -83 145 -44 81 -66 115 -76 122
-6 4 -7 8 -2 8 5 0 1 9 -9 20 -11 12 -20 27 -21 35 -1 8 -16 35 -33 60 -17 25
-31 47 -31 49 0 11 -128 225 -132 221 -3 -3 -5 1 -5 7 0 23 -69 138 -78 130
-4 -4 -6 -2 -3 3 7 12 -27 77 -36 68 -3 -3 -6 1 -6 11 0 10 -23 56 -51 104
-29 48 -63 107 -77 132 -14 25 -44 77 -67 115 -22 39 -44 77 -48 85 -21 42
-35 59 -42 52 -5 -4 -5 -2 -2 4 6 10 -73 158 -101 190 -5 6 -13 20 -16 32 -4
12 -12 22 -17 22 -6 0 -7 5 -4 10 3 6 1 10 -4 10 -6 0 -10 3 -9 8 3 8 -48 98
-70 125 -8 9 -11 17 -7 17 4 0 2 8 -6 18 -8 9 -20 28 -28 42 -8 14 -37 63 -64
110 -27 47 -59 101 -69 120 -58 102 -73 126 -83 132 -6 5 -6 8 0 8 6 0 1 7 -9
15 -11 8 -16 15 -12 15 4 0 -5 22 -21 49 -15 27 -30 48 -33 46 -4 -2 -7 1 -7
8 0 19 -69 138 -76 132 -4 -3 -5 -2 -2 1 2 4 -5 24 -16 44 l-21 37 -4928 0
-4928 0 -14 -26z m4922 -70 c8 -1 -5 -13 -30 -28 -25 -15 -48 -31 -51 -36 -3
-5 -10 -9 -15 -9 -12 1 -117 -59 -125 -71 -3 -5 -9 -8 -13 -8 -9 2 -99 -51
-107 -62 -3 -5 -9 -8 -13 -8 -15 2 -75 -33 -70 -41 3 -5 2 -7 -3 -6 -15 4 -53
-13 -53 -24 0 -6 -3 -8 -6 -5 -4 4 -19 -2 -34 -13 -16 -11 -33 -20 -38 -20 -5
0 -12 -7 -16 -15 -3 -8 -9 -15 -13 -14 -18 3 -31 -2 -53 -23 -14 -13 -26 -22
-27 -20 -9 8 -23 0 -17 -10 4 -6 3 -9 -2 -5 -12 7 -126 -58 -117 -67 4 -4 0
-4 -8 -1 -9 3 -22 -1 -29 -10 -7 -8 -19 -15 -27 -15 -8 0 -11 -5 -7 -12 4 -6
3 -8 -3 -5 -5 3 -34 -9 -64 -27 -30 -17 -62 -35 -71 -39 -10 -3 -18 -10 -18
-15 0 -5 -6 -9 -12 -9 -15 0 -190 -102 -199 -116 -3 -5 -9 -8 -13 -8 -7 2 -69
-29 -76 -38 -3 -3 -35 -22 -72 -41 -36 -19 -64 -39 -61 -45 4 -5 3 -7 -2 -3
-9 8 -85 -31 -85 -44 0 -4 -3 -7 -7 -6 -12 4 -224 -118 -218 -125 3 -4 2 -5
-1 -2 -9 6 -84 -33 -84 -44 0 -4 -6 -8 -12 -8 -16 0 -280 -152 -289 -165 -3
-5 -10 -10 -15 -10 -17 -1 -54 -21 -54 -30 0 -4 -3 -7 -7 -6 -5 1 -40 -16 -79
-39 -39 -23 -82 -47 -97 -54 -14 -7 -24 -16 -20 -22 3 -6 2 -8 -3 -5 -11 7
-75 -27 -69 -36 3 -3 2 -4 -1 -1 -9 6 -84 -36 -84 -47 0 -4 -3 -7 -7 -7 -21 3
-34 -2 -28 -11 4 -6 3 -9 -2 -8 -14 4 -53 -13 -53 -23 0 -6 -4 -8 -9 -5 -5 3
-14 0 -20 -8 -6 -7 -29 -21 -51 -31 -22 -10 -40 -22 -40 -27 0 -5 -4 -6 -10
-3 -5 3 -10 1 -10 -4 0 -6 -3 -10 -7 -9 -12 4 -93 -44 -93 -54 0 -5 -4 -6 -10
-3 -5 3 -10 1 -10 -4 0 -6 -3 -10 -7 -9 -16 3 -62 -25 -56 -35 3 -6 2 -8 -3
-5 -13 8 -95 -37 -86 -47 4 -5 2 -6 -3 -2 -12 6 -108 -46 -100 -55 3 -2 -1 -5
-7 -5 -22 0 -258 -139 -250 -147 4 -4 2 -6 -3 -4 -14 4 -75 -23 -75 -33 0 -5
-5 -9 -11 -9 -14 0 -152 -80 -161 -94 -4 -6 -8 -8 -8 -4 0 4 -45 -20 -101 -52
-55 -33 -105 -60 -110 -60 -5 0 -9 -4 -9 -10 0 -5 -7 -10 -15 -10 -8 0 -15 -5
-15 -12 0 -6 -3 -9 -6 -5 -3 3 -24 -5 -45 -19 -21 -13 -43 -24 -49 -24 -5 0
-10 -4 -10 -10 0 -5 -7 -10 -15 -10 -8 0 -15 -5 -15 -10 0 -6 -3 -9 -7 -8 -5
1 -17 -3 -28 -9 -11 -7 -36 -21 -55 -33 -19 -11 -54 -30 -77 -42 -24 -12 -43
-26 -43 -30 0 -4 -5 -8 -10 -8 -6 0 -65 -32 -133 -72 -67 -39 -148 -85 -179
-101 -32 -17 -55 -34 -52 -38 3 -5 -3 -6 -12 -2 -10 4 -15 2 -11 -4 3 -5 1
-10 -6 -10 -10 0 -59 -26 -137 -74 -8 -5 -32 -18 -52 -29 -21 -11 -38 -25 -38
-30 0 -6 -3 -9 -7 -8 -15 4 -53 -14 -53 -24 0 -6 -3 -8 -6 -5 -4 4 -19 -2 -33
-12 -14 -10 -33 -21 -41 -25 -8 -4 -24 -12 -35 -19 -11 -7 -74 -43 -140 -81
-66 -38 -123 -73 -126 -78 -3 -5 -9 -8 -12 -6 -4 1 -15 -5 -27 -14 -11 -10
-20 -16 -20 -13 0 7 -314 -177 -322 -189 -4 -6 -8 -8 -8 -4 0 4 -15 -1 -32
-11 -156 -89 -234 -137 -240 -146 -4 -5 -8 -6 -8 -2 0 5 -13 -1 -29 -12 -16
-12 -31 -21 -34 -21 -8 0 -162 -94 -168 -103 -3 -5 -9 -7 -12 -5 -4 1 -15 -4
-25 -12 -10 -8 -23 -16 -28 -17 -24 -5 -163 -91 -156 -97 4 -4 2 -6 -3 -5 -16
5 -56 -12 -51 -20 3 -4 0 -8 -7 -8 -16 0 -229 -123 -239 -137 -4 -6 -8 -7 -8
-3 0 5 -13 -1 -29 -12 -16 -12 -32 -21 -35 -21 -9 0 -110 -63 -117 -73 -3 -5
-8 -8 -10 -8 -13 2 -49 -13 -49 -20 0 -5 -7 -9 -16 -9 -9 0 -12 -5 -8 -12 4
-7 4 -10 -1 -6 -7 7 -63 -17 -75 -31 -6 -7 -108 -61 -116 -61 -5 0 45 99 56
110 3 3 12 19 20 35 8 17 17 32 20 35 11 10 125 215 122 219 -2 2 0 7 5 10 12
7 83 129 83 141 0 4 3 10 8 12 11 5 52 84 47 92 -3 3 -2 4 2 1 5 -4 44 59 157
257 11 21 43 76 70 122 26 47 47 86 45 88 -2 2 5 12 14 23 9 11 17 24 16 29 0
5 3 12 9 15 9 7 92 146 92 156 0 3 5 11 11 18 17 20 111 185 109 193 -1 4 2
10 8 13 12 8 154 253 155 268 0 7 7 15 15 18 9 3 12 12 8 22 -4 10 -4 14 0 10
9 -9 114 175 107 187 -4 5 -1 6 5 2 7 -4 14 3 18 19 3 14 9 25 13 25 9 0 36
63 32 75 -1 6 1 7 5 2 6 -6 86 124 84 138 0 3 6 13 15 21 8 9 12 20 9 26 -4 6
-3 8 3 5 9 -6 49 60 45 76 -1 4 2 7 8 7 5 0 10 6 10 14 0 8 4 16 8 18 5 2 28
39 52 83 24 44 52 92 62 108 11 15 16 27 11 27 -4 0 -3 4 3 8 18 13 74 119 66
127 -4 5 -2 5 4 2 10 -6 40 39 36 56 -1 4 3 7 8 7 6 0 10 6 10 14 0 7 7 19 15
26 9 7 13 15 10 18 -2 3 2 10 11 16 8 6 16 21 17 33 0 12 4 20 8 17 4 -2 10 3
13 12 3 8 25 48 48 87 23 40 41 75 40 80 -1 4 1 7 6 7 4 0 16 17 27 38 10 20
27 49 37 63 9 14 15 29 11 33 -3 3 -1 6 5 6 7 0 12 7 12 15 0 8 5 15 10 15 6
0 10 5 10 10 0 6 11 28 24 49 14 21 22 42 19 45 -4 3 -1 6 5 6 7 0 12 7 12 15
0 8 5 15 10 15 6 0 10 5 10 10 0 6 11 28 24 49 14 21 22 42 19 45 -4 3 -1 6 5
6 7 0 12 6 12 14 0 8 4 16 9 18 5 2 20 26 35 53 15 28 35 64 46 80 10 17 31
53 46 80 14 28 35 62 46 78 11 15 16 27 11 27 -4 0 -2 4 5 9 7 4 14 15 16 23
1 8 8 22 16 30 8 8 29 42 45 76 20 39 37 62 50 64 17 2 4789 1 4835 -1z m4897
-6 c0 -20 141 -254 148 -247 5 4 6 2 2 -3 -7 -13 57 -127 67 -118 4 4 4 -1 0
-11 -5 -12 -4 -17 3 -13 5 3 10 1 10 -6 1 -23 60 -117 68 -110 4 5 5 3 2 -3
-3 -6 16 -48 43 -94 28 -46 50 -84 50 -86 0 -7 75 -130 83 -135 5 -3 9 -10 9
-15 1 -22 22 -53 31 -47 6 3 7 1 4 -4 -6 -9 44 -106 71 -138 4 -5 11 -17 14
-25 19 -48 166 -288 173 -282 5 4 6 3 3 -3 -3 -5 8 -35 26 -66 67 -120 99
-174 108 -180 5 -3 10 -10 10 -15 1 -19 22 -54 31 -54 6 0 8 -3 4 -6 -3 -3 12
-35 34 -70 21 -35 39 -68 39 -72 0 -5 9 -18 20 -30 11 -12 20 -24 20 -27 0
-13 34 -74 40 -70 4 2 7 -1 7 -8 0 -19 74 -147 85 -147 5 0 6 -4 3 -10 -3 -5
-1 -10 4 -10 6 0 10 -3 9 -7 -2 -7 40 -85 82 -153 5 -8 44 -76 86 -150 43 -74
81 -138 87 -141 5 -3 7 -8 6 -10 -3 -4 71 -140 80 -149 3 -3 17 -26 31 -52 13
-27 29 -48 34 -48 5 0 7 -3 4 -6 -3 -3 23 -54 58 -114 34 -60 74 -129 87 -152
114 -200 155 -267 160 -263 4 3 5 2 2 -1 -4 -6 32 -81 45 -94 5 -5 14 -20 58
-99 14 -25 29 -49 34 -52 6 -3 9 -9 9 -13 -3 -20 0 -26 12 -20 6 4 9 4 5 -1
-4 -4 0 -22 10 -39 10 -17 38 -65 62 -106 25 -41 48 -78 53 -81 5 -3 7 -9 5
-12 -1 -4 6 -17 17 -29 10 -13 18 -24 17 -25 -6 -8 33 -71 41 -66 6 3 7 1 3
-6 -4 -6 1 -23 12 -39 11 -15 36 -57 56 -94 29 -52 33 -68 22 -68 -9 0 -16 4
-16 9 0 5 -8 11 -17 13 -32 8 -38 12 -57 30 -11 10 -23 18 -28 18 -15 0 -23 4
-36 17 -8 7 -18 10 -24 7 -6 -4 -8 -3 -5 2 3 6 -22 25 -56 44 -34 18 -90 51
-124 72 -35 21 -63 34 -63 30 0 -4 -4 -2 -8 4 -10 14 -174 107 -189 107 -7 0
-10 4 -8 8 3 4 -7 12 -23 18 -33 14 -64 32 -86 50 -9 7 -16 10 -16 5 0 -5 -4
-4 -8 2 -7 11 -128 84 -138 84 -3 0 -18 9 -33 19 -15 11 -34 21 -41 23 -8 2
-22 10 -32 19 -10 9 -31 22 -46 30 -15 7 -44 24 -64 36 -21 13 -38 20 -38 16
0 -5 -4 -3 -8 3 -13 19 -98 64 -107 56 -4 -4 -5 -2 -2 4 5 9 -57 48 -66 41 -2
-1 -11 6 -21 16 -10 9 -23 14 -29 10 -7 -3 -9 -3 -5 2 7 7 -154 105 -174 105
-4 0 -8 5 -8 10 0 6 -4 10 -9 10 -5 0 -55 27 -111 60 -55 33 -98 54 -95 47 4
-6 1 -5 -7 3 -18 21 -104 71 -112 65 -3 -3 -4 -2 -1 2 4 5 -191 121 -212 125
-5 1 -17 10 -27 20 -11 10 -23 18 -28 18 -4 0 -37 18 -73 40 -36 22 -65 36
-65 32 0 -4 -4 -2 -8 4 -11 16 -98 65 -105 59 -4 -3 -5 -2 -2 2 6 7 -113 76
-132 76 -7 0 -10 4 -8 8 3 4 -2 10 -11 13 -8 3 -48 25 -87 48 -40 23 -75 41
-79 40 -5 -1 -8 3 -8 9 0 5 -4 7 -10 4 -5 -3 -10 -2 -10 4 0 5 -10 13 -22 17
-13 4 -25 10 -28 14 -7 9 -137 81 -147 81 -4 0 -12 7 -16 15 -5 8 -12 12 -18
9 -5 -4 -9 -1 -9 5 0 6 -4 8 -10 5 -5 -3 -10 -2 -10 4 0 10 -39 27 -53 23 -5
-1 -6 1 -3 6 2 4 -12 17 -32 27 -20 11 -49 28 -64 38 -16 10 -28 15 -28 10 0
-4 -4 -3 -8 3 -8 12 -125 80 -131 75 -2 -1 -7 1 -10 6 -11 17 -78 53 -84 46
-4 -3 -7 -2 -7 3 0 14 -75 55 -85 46 -5 -4 -6 -2 -2 3 3 6 -8 18 -24 28 -18
10 -28 12 -24 4 4 -6 1 -5 -7 4 -20 24 -124 80 -133 72 -4 -5 -5 -2 -1 5 4 6
3 12 -1 12 -5 0 -67 34 -138 76 -72 41 -134 76 -140 77 -5 1 -12 4 -15 7 -6 7
-91 59 -151 93 -26 15 -50 23 -54 19 -5 -4 -5 -2 -2 4 5 9 -52 45 -69 43 -4 0
-10 4 -13 9 -7 10 -67 43 -77 41 -4 0 -10 3 -13 9 -10 14 -97 62 -104 57 -4
-3 -5 -2 -2 2 7 9 -247 153 -258 146 -6 -3 -7 -1 -3 5 4 7 4 12 -1 12 -4 0
-45 22 -90 49 -46 27 -83 47 -83 44 0 -4 -9 2 -20 12 -11 10 -20 14 -20 9 0
-5 -5 -1 -11 9 -6 9 -14 15 -20 12 -5 -4 -9 -2 -9 3 0 8 -84 54 -96 52 -3 -1
-12 7 -20 17 -7 10 -14 14 -14 8 0 -6 -3 -6 -8 1 -11 16 -98 65 -105 59 -4 -3
-5 -2 -2 2 4 6 -202 127 -218 128 -4 0 -11 5 -15 11 -4 6 -27 21 -52 33 -73
37 -105 55 -112 66 -5 7 -8 7 -8 0 0 -6 -3 -5 -8 1 -9 14 -203 127 -219 127
-7 0 -13 4 -13 8 0 12 -62 44 -79 40 -7 -1 -10 2 -7 7 5 8 -43 37 -53 32 -2
-1 -7 2 -10 7 -6 8 -128 83 -136 83 -3 0 -25 13 -51 30 -26 16 -52 27 -58 23
-6 -3 -8 -2 -4 2 8 8 -107 78 -129 78 -7 0 -10 4 -7 8 3 5 -7 11 -21 15 -14 3
-25 10 -25 14 0 5 -16 14 -35 21 -19 7 -35 17 -35 22 0 4 -4 6 -9 3 -5 -4 -11
-3 -13 2 -5 11 -220 135 -235 135 -7 0 -11 3 -8 5 6 6 -95 64 -112 65 -7 0
-11 2 -8 5 2 3 -8 12 -24 21 -246 138 -291 166 -271 171 43 10 4847 5 4847 -5z
m-4830 -127 c7 -1 11 -4 9 -7 -2 -3 21 -20 50 -38 30 -17 52 -26 48 -20 -3 7
0 5 8 -4 15 -18 79 -54 91 -51 4 1 7 -2 7 -6 0 -8 51 -36 59 -32 2 1 7 -2 10
-7 8 -12 163 -104 174 -103 4 0 17 -9 29 -20 12 -11 28 -18 36 -15 7 2 11 1 8
-4 -5 -8 42 -36 57 -33 4 1 7 -2 7 -8 0 -5 7 -10 15 -10 8 0 15 -4 15 -10 0
-5 5 -10 10 -10 6 0 28 -11 50 -25 21 -14 45 -26 52 -27 7 -2 21 -11 32 -20
11 -10 26 -18 33 -18 7 0 13 -3 13 -8 0 -7 49 -32 67 -34 4 -1 13 -7 20 -14
18 -18 246 -147 260 -147 7 0 10 -3 8 -7 -2 -3 17 -17 43 -30 26 -14 87 -49
135 -78 49 -29 94 -54 100 -55 6 -1 18 -8 25 -15 8 -7 18 -9 24 -6 6 4 8 3 5
-2 -5 -9 174 -116 189 -113 4 0 10 -3 13 -8 9 -14 223 -136 238 -136 7 0 10
-4 7 -9 -3 -4 8 -11 25 -14 17 -4 28 -10 25 -15 -3 -5 2 -9 10 -9 9 0 16 -5
16 -12 0 -6 3 -8 7 -5 3 4 15 0 25 -10 10 -9 18 -12 18 -7 0 5 4 4 8 -2 11
-16 98 -65 105 -59 4 3 5 2 2 -2 -3 -4 9 -14 27 -23 18 -9 96 -53 172 -98 76
-45 141 -82 144 -82 3 0 14 -8 25 -17 15 -13 19 -14 13 -3 -4 8 0 6 8 -4 9
-11 16 -16 16 -10 0 5 4 4 8 -2 11 -16 82 -57 82 -47 0 4 4 3 8 -3 10 -16 423
-255 416 -241 -3 7 0 5 8 -3 7 -9 47 -35 88 -59 41 -25 95 -57 121 -71 25 -15
55 -31 67 -34 12 -4 22 -12 22 -17 0 -5 4 -9 9 -9 12 0 121 -63 121 -70 0 -7
-7168 -5 -7175 2 -3 2 13 13 35 24 22 10 40 22 40 27 0 4 4 7 9 7 13 0 134 72
143 85 4 5 8 6 8 2 0 -5 12 0 28 11 15 10 50 32 77 47 135 74 261 149 267 159
4 6 8 8 8 4 0 -9 101 51 111 65 3 5 8 7 10 6 7 -5 99 44 99 53 0 4 7 8 15 8 8
0 15 5 15 11 0 5 4 8 8 5 5 -3 20 5 33 17 13 12 25 21 27 19 4 -5 136 69 143
80 3 6 10 9 15 9 5 -1 17 6 27 14 9 8 17 13 17 10 0 -2 45 23 101 55 55 33
105 60 110 60 6 0 7 6 3 13 -4 6 -4 9 1 5 9 -8 85 31 85 44 0 4 3 7 8 7 18 -3
33 2 28 9 -3 5 0 9 7 9 13 0 282 154 307 175 8 7 17 12 20 12 14 -3 49 20 43
29 -3 6 -1 7 4 4 6 -4 27 4 47 18 20 13 36 22 36 20 0 -3 28 12 63 34 34 21
112 67 172 101 61 35 113 67 116 72 3 6 10 10 15 9 12 0 167 90 175 101 3 6 8
9 10 8 8 -4 59 24 59 32 0 4 3 7 8 6 6 -2 65 28 102 52 8 5 44 26 80 47 36 20
68 40 71 46 3 5 9 8 13 8 12 -1 96 43 96 51 0 4 7 8 15 8 8 0 15 5 15 12 0 6
3 8 7 5 3 -4 11 -3 17 2 11 9 49 31 139 81 26 15 45 29 42 32 -3 2 1 5 8 5 11
0 88 43 237 132 19 11 44 25 56 30 11 5 43 23 70 41 35 22 56 29 74 25 14 -3
30 -6 37 -7z m-3672 -2102 c-10 -14 -14 -26 -10 -26 4 0 -5 -14 -19 -31 -14
-17 -24 -35 -20 -40 3 -5 1 -9 -3 -9 -10 0 -99 -151 -95 -162 1 -5 -2 -8 -7
-8 -10 0 -27 -39 -23 -53 1 -5 -1 -6 -6 -3 -11 7 -36 -43 -33 -64 2 -8 0 -12
-4 -8 -8 8 -247 -398 -248 -419 0 -7 -4 -10 -9 -7 -4 3 -8 1 -8 -5 0 -5 -27
-54 -59 -109 -33 -55 -57 -103 -53 -106 3 -3 0 -6 -6 -6 -11 0 -28 -38 -24
-53 1 -5 -2 -6 -7 -3 -11 7 -25 -23 -22 -44 2 -8 0 -12 -5 -8 -4 5 -12 -1 -18
-12 -51 -89 -64 -119 -58 -125 4 -5 2 -5 -4 -2 -10 6 -40 -39 -36 -55 1 -5 -2
-8 -6 -8 -9 0 -29 -37 -30 -54 0 -5 -4 -12 -9 -15 -13 -9 -93 -147 -93 -160 0
-6 -4 -11 -10 -11 -5 0 -10 -4 -10 -9 0 -5 -27 -54 -59 -109 -33 -55 -57 -103
-53 -106 3 -3 1 -6 -5 -6 -9 0 -37 -50 -33 -59 1 -2 -2 -7 -8 -10 -12 -8 -97
-154 -94 -163 1 -5 -3 -8 -9 -8 -5 0 -8 -4 -5 -9 4 -5 2 -11 -2 -13 -5 -1 -31
-41 -57 -88 -27 -47 -57 -97 -66 -111 -10 -14 -16 -29 -12 -33 3 -3 1 -6 -6
-6 -7 0 -9 -5 -6 -10 3 -6 -1 -13 -9 -16 -9 -3 -16 -10 -16 -15 0 -5 -11 -27
-25 -49 -14 -22 -22 -40 -18 -40 5 0 3 -4 -3 -8 -12 -8 -80 -125 -75 -131 1
-2 -1 -7 -6 -10 -14 -9 -166 -274 -166 -288 0 -7 -4 -10 -9 -7 -7 5 -12 -10
-9 -28 0 -5 -3 -8 -8 -8 -5 0 -20 -21 -33 -47 -13 -27 -26 -50 -29 -53 -3 -3
-30 -48 -60 -100 -30 -52 -58 -103 -64 -112 -5 -9 -17 -29 -26 -45 -8 -15 -23
-40 -33 -55 -10 -16 -14 -28 -10 -28 5 0 4 -4 -2 -8 -15 -9 -145 -232 -136
-232 4 0 2 -4 -4 -8 -11 -8 -72 -112 -73 -125 0 -4 -7 -15 -16 -23 -8 -9 -12
-20 -9 -26 4 -6 3 -8 -2 -5 -6 3 -21 -15 -34 -41 -13 -26 -38 -69 -54 -96 -17
-27 -31 -51 -31 -55 0 -3 -8 -17 -17 -31 -48 -75 -67 -110 -61 -110 5 0 3 -4
-2 -8 -13 -8 -63 -93 -63 -106 0 -5 -5 -12 -10 -15 -5 -3 -24 -33 -42 -66 -18
-33 -51 -88 -72 -122 -21 -35 -35 -63 -32 -63 2 0 0 -6 -6 -12 -23 -26 -108
-178 -97 -172 7 3 5 0 -4 -8 -17 -14 -125 -201 -120 -207 1 -2 -1 -7 -6 -10
-13 -9 -93 -147 -93 -160 0 -6 -4 -11 -9 -11 -10 0 -37 -61 -33 -75 2 -5 0 -7
-4 -3 -7 8 -44 -53 -171 -279 -14 -27 -41 -71 -59 -100 -18 -28 -30 -54 -27
-57 4 -3 1 -6 -5 -6 -7 0 -12 -6 -12 -14 0 -7 -6 -19 -14 -26 -8 -6 -12 -19
-9 -28 3 -9 3 -14 -2 -10 -8 8 -137 -207 -138 -229 0 -7 -5 -9 -10 -6 -7 4 -8
-1 -3 -13 4 -10 4 -15 0 -11 -7 7 -104 -154 -104 -173 0 -5 -4 -10 -9 -10 -5
0 -13 -10 -17 -22 l-8 -23 -5 23 c-3 13 -6 947 -5 2075 l0 2052 52 31 c28 17
48 34 45 38 -4 4 0 4 10 0 9 -3 17 -2 17 4 0 5 11 13 25 16 14 4 24 10 21 15
-3 4 0 8 7 8 15 0 159 82 168 95 3 6 9 9 13 9 14 -2 75 33 70 41 -3 4 3 5 12
1 12 -4 15 -3 10 6 -4 6 -3 10 2 9 7 -2 125 60 192 102 14 9 66 39 161 92 134
76 194 113 197 120 2 5 7 6 12 3 4 -3 13 2 20 10 7 8 16 15 21 15 9 0 109 59
119 69 3 4 12 7 20 9 8 2 22 9 30 17 8 7 25 16 38 20 12 3 19 11 16 17 -4 6
-3 8 3 5 5 -3 36 10 69 30 32 19 98 58 147 85 48 27 87 54 87 60 0 6 3 9 6 5
9 -8 104 43 104 56 0 6 3 7 6 4 8 -8 64 24 64 36 0 4 5 5 10 2 6 -3 10 -1 10
4 0 6 3 10 8 9 16 -4 61 26 55 36 -3 6 -3 8 2 4 8 -8 137 59 143 74 2 4 10 8
18 8 8 0 14 4 14 8 0 5 6 9 13 9 6 0 42 19 79 42 37 22 72 41 78 41 6 0 8 6 4
13 -4 6 -4 9 1 5 10 -9 65 19 65 33 0 6 5 7 10 4 6 -3 10 -1 10 4 0 6 3 10 8
9 11 -4 292 158 287 166 -3 3 -2 4 1 2 7 -6 96 43 106 58 4 6 8 8 8 4 0 -3 26
9 57 28 31 19 61 34 66 34 4 0 5 6 1 13 -4 6 -4 9 1 5 7 -7 64 17 75 31 3 4
16 12 30 18 55 27 109 60 105 65 -3 3 1 5 8 5 17 1 118 59 112 65 -3 2 1 5 8
5 16 0 188 99 182 105 -3 3 1 5 8 5 6 0 64 30 127 66 63 36 116 64 118 62 2
-2 -4 -15 -13 -29z m7360 -36 c50 -29 96 -53 103 -53 6 0 12 -3 12 -7 0 -11
57 -40 65 -32 5 4 4 1 0 -7 -6 -11 -4 -13 11 -7 10 4 15 4 11 0 -5 -6 115 -84
130 -84 3 0 24 -13 47 -28 22 -15 48 -31 56 -34 8 -3 57 -31 109 -62 51 -31
98 -53 105 -49 6 3 8 3 4 -2 -10 -11 50 -47 64 -39 6 4 8 3 5 -3 -6 -9 29 -32
44 -29 3 0 13 -7 23 -17 10 -9 22 -14 28 -11 7 4 8 2 4 -4 -6 -11 0 -14 20
-11 4 0 10 -3 13 -8 3 -5 71 -47 151 -93 80 -45 177 -101 215 -124 39 -22 73
-39 78 -38 4 1 7 -2 7 -7 0 -11 40 -26 55 -22 6 1 7 -1 3 -4 -6 -6 203 -135
218 -135 2 0 23 -13 46 -29 24 -16 46 -27 50 -25 5 3 8 1 8 -4 0 -9 36 -29 54
-30 5 0 12 -4 15 -10 3 -5 27 -21 54 -35 95 -54 135 -77 295 -171 89 -52 160
-90 157 -83 -4 7 -1 5 7 -4 7 -9 31 -26 53 -38 41 -22 85 -48 141 -82 17 -10
35 -15 39 -11 5 4 5 1 1 -5 -4 -7 -3 -13 3 -13 6 0 33 -13 61 -30 27 -16 50
-26 50 -22 0 4 5 -1 11 -11 6 -9 14 -15 20 -12 5 4 9 2 9 -2 0 -5 17 -17 37
-28 21 -11 73 -41 117 -67 44 -26 84 -44 90 -41 6 3 8 3 4 -2 -7 -7 193 -127
208 -124 4 0 10 -3 13 -8 6 -9 82 -58 91 -58 3 0 16 -8 30 -17 14 -9 37 -22
53 -29 15 -7 27 -16 27 -21 0 -4 9 -8 19 -8 11 0 21 -4 23 -8 2 -4 24 -20 51
-35 26 -15 47 -31 48 -35 3 -23 4 -4128 1 -4135 -3 -6 -52 57 -52 67 0 15 -88
154 -94 148 -4 -4 -6 -2 -5 3 5 17 -12 55 -23 55 -6 0 -8 3 -5 7 4 3 3 11 -2
17 -4 6 -52 88 -106 181 -54 94 -102 173 -107 176 -5 3 -9 8 -8 10 4 9 -24 59
-33 59 -6 0 -8 3 -4 6 3 3 -5 24 -19 45 -13 21 -24 43 -24 49 0 6 -5 8 -10 5
-6 -4 -9 -3 -8 2 4 14 -13 53 -23 53 -5 0 -9 6 -9 14 0 8 -7 22 -16 30 -8 9
-13 16 -9 16 4 0 -3 12 -14 26 -12 15 -21 31 -21 36 0 10 -51 90 -63 99 -5 3
-8 8 -7 10 2 6 -13 43 -22 54 -16 18 -168 288 -168 297 0 5 -4 7 -8 4 -5 -3
-9 0 -9 7 -1 19 -59 118 -66 112 -4 -3 -5 -2 -2 2 6 7 -43 94 -59 105 -6 4 -7
8 -3 8 5 0 -1 13 -12 29 -12 16 -21 32 -21 35 0 3 -17 34 -38 68 -20 35 -46
80 -57 100 -10 20 -22 35 -25 33 -4 -2 -7 1 -7 8 0 22 -70 137 -78 129 -4 -4
-5 -1 0 7 5 9 2 19 -9 27 -10 7 -17 16 -17 21 1 13 -145 263 -151 258 -2 -3
-5 1 -5 8 0 14 -242 439 -256 448 -5 3 -9 10 -9 15 -1 20 -22 53 -30 48 -5 -3
-7 -2 -6 3 6 17 -25 73 -36 66 -6 -3 -8 -3 -4 2 8 8 -48 114 -66 127 -6 4 -8
8 -4 8 3 0 -9 26 -28 57 -19 31 -34 61 -34 66 0 4 -6 5 -12 1 -7 -4 -10 -4 -6
1 9 9 -47 113 -71 133 -12 10 -12 11 -2 6 9 -5 6 5 -7 23 -12 17 -22 36 -22
42 0 6 -4 11 -10 11 -5 0 -10 4 -10 9 0 6 -17 38 -37 73 -58 97 -70 119 -99
175 -15 29 -32 49 -37 46 -6 -3 -7 -1 -3 5 3 6 -2 18 -11 28 -10 10 -16 18
-13 19 3 1 -4 18 -14 38 -11 20 -23 34 -26 32 -4 -2 -7 1 -7 8 0 16 -123 229
-137 239 -6 4 -8 8 -4 8 4 0 -13 34 -37 75 -25 42 -45 78 -45 82 0 4 -6 14
-14 22 -7 9 -24 36 -37 61 -13 25 -26 47 -29 50 -3 3 -12 19 -20 35 -8 17 -17
32 -20 35 -3 3 -11 16 -19 29 -7 14 -24 43 -36 65 -87 154 -113 195 -120 188
-5 -4 -5 -1 -1 6 4 7 3 18 -2 25 -10 12 -126 212 -151 260 -8 15 -18 27 -23
27 -5 0 -6 5 -3 10 3 6 1 10 -6 10 -7 0 -9 3 -6 6 4 4 -2 19 -13 34 -11 16
-20 33 -20 40 0 6 -4 9 -8 6 -5 -3 -9 0 -9 7 0 7 -12 31 -26 54 -15 24 -27 47
-27 53 0 6 -4 9 -8 6 -5 -3 -9 0 -9 7 -1 19 -59 118 -66 112 -4 -3 -5 -2 -2 2
6 7 -43 94 -59 105 -6 4 -7 8 -2 8 5 0 4 6 -2 13 -5 6 -19 28 -29 47 -74 132
-178 306 -187 312 -6 4 -8 8 -4 8 9 0 -61 122 -76 132 -6 4 -8 8 -4 8 4 0 -6
22 -22 49 -47 76 -52 76 95 -9z m-3831 -46 c-16 -13 -34 -24 -40 -24 -5 0 -21
-10 -34 -22 -14 -13 -26 -22 -27 -20 -2 1 -31 -13 -64 -33 -33 -19 -64 -35
-70 -35 -5 0 -9 -4 -9 -10 0 -5 -6 -10 -14 -10 -8 0 -21 -6 -28 -12 -8 -7 -39
-26 -71 -43 -31 -16 -57 -33 -57 -38 0 -4 -4 -6 -9 -3 -5 3 -14 -1 -21 -9 -7
-8 -16 -15 -20 -15 -4 0 -75 -39 -156 -87 -82 -47 -166 -96 -186 -107 -20 -12
-73 -42 -117 -67 -45 -25 -79 -48 -76 -51 3 -2 -1 -5 -8 -5 -19 0 -197 -105
-197 -116 0 -6 -3 -7 -7 -4 -7 7 -93 -39 -104 -55 -3 -6 -10 -9 -15 -9 -5 1
-17 -6 -26 -14 -10 -8 -18 -13 -18 -10 0 2 -45 -23 -101 -55 -55 -33 -105 -60
-110 -60 -5 0 -9 -4 -9 -10 0 -5 -4 -10 -10 -10 -5 0 -31 -13 -58 -29 -26 -15
-68 -39 -93 -53 -24 -14 -62 -35 -84 -48 -22 -13 -60 -34 -85 -48 -25 -14 -47
-28 -50 -32 -3 -4 -15 -10 -28 -14 -12 -4 -20 -11 -18 -15 3 -4 0 -8 -7 -8
-10 0 -156 -79 -227 -124 -8 -5 -50 -29 -92 -52 -43 -24 -75 -48 -70 -53 4 -5
3 -6 -2 -2 -5 4 -27 -3 -50 -16 -22 -13 -86 -49 -141 -81 -55 -31 -116 -66
-135 -77 -19 -11 -38 -25 -42 -32 -4 -6 -8 -7 -8 -2 0 5 -6 4 -12 -1 -7 -6
-33 -22 -58 -36 -25 -13 -67 -37 -95 -53 -27 -15 -53 -32 -57 -38 -3 -5 -14
-11 -24 -12 -9 -2 -20 -8 -24 -14 -4 -7 -11 -12 -16 -12 -12 0 -148 -79 -155
-90 -3 -6 -8 -8 -10 -7 -2 2 -39 -17 -82 -41 -43 -25 -92 -52 -108 -60 -16 -9
-27 -18 -24 -21 3 -3 -1 -6 -8 -6 -15 0 -229 -123 -239 -137 -4 -6 -8 -8 -8
-4 0 6 -173 -91 -196 -110 -6 -5 -20 -13 -32 -16 -12 -4 -22 -12 -22 -17 0 -5
-3 -8 -7 -7 -5 1 -42 -17 -83 -41 -240 -139 -286 -166 -292 -176 -4 -5 -8 -7
-8 -3 0 4 -21 -6 -47 -22 -46 -28 -124 -73 -208 -120 -72 -40 -110 -64 -116
-73 -3 -5 -9 -8 -13 -8 -12 1 -76 -33 -76 -41 0 -4 -6 -8 -14 -8 -8 0 -22 -7
-30 -16 -9 -8 -16 -13 -16 -9 0 3 -13 -3 -29 -14 -16 -12 -34 -21 -40 -21 -6
0 -11 -4 -11 -9 0 -5 -11 -12 -25 -15 -16 -4 -23 -11 -19 -18 4 -6 3 -8 -4 -4
-13 8 -82 -31 -82 -47 0 -6 -3 -7 -6 -4 -4 3 -27 -6 -52 -20 -25 -15 -43 -22
-41 -17 2 6 60 108 129 227 69 118 133 231 142 249 9 18 21 38 25 43 5 6 26
42 47 80 22 39 47 82 57 96 10 14 16 29 12 33 -3 3 -2 6 3 6 5 0 23 26 39 57
17 32 36 64 42 71 7 7 16 24 19 38 3 13 9 24 13 24 3 0 18 21 31 47 14 26 29
52 33 58 20 26 110 191 110 203 0 6 3 10 5 7 6 -5 128 208 123 214 -1 2 1 7 7
10 8 5 81 127 150 251 13 25 28 50 32 55 25 32 68 123 62 130 -4 5 -1 5 6 1 7
-4 12 -1 12 8 0 8 3 16 8 18 4 2 14 17 23 33 9 17 56 100 106 185 49 85 134
232 188 325 54 94 98 175 98 182 0 7 4 10 9 7 4 -3 8 -1 8 5 0 5 21 45 46 88
52 86 74 125 112 193 13 25 29 50 33 56 7 8 491 11 1746 11 l1737 0 -30 -23z
m3716 -114 c43 -74 85 -143 94 -152 9 -10 14 -18 11 -18 -6 0 44 -90 55 -100
3 -3 21 -35 40 -72 19 -38 38 -68 43 -68 4 0 7 -5 7 -11 0 -6 23 -48 50 -95
28 -47 50 -89 50 -94 0 -6 5 -10 10 -10 6 0 10 -4 10 -9 0 -9 120 -222 130
-231 4 -3 12 -20 19 -37 8 -18 17 -33 21 -33 4 0 11 -11 14 -25 4 -14 11 -23
16 -20 5 3 7 0 5 -7 -3 -8 4 -24 15 -36 11 -12 21 -25 21 -29 1 -20 107 -192
113 -185 4 4 6 3 5 -3 -4 -15 11 -55 22 -55 5 0 8 -3 7 -7 -3 -8 60 -123 71
-133 3 -3 21 -34 40 -70 19 -36 40 -72 48 -81 7 -9 10 -19 6 -22 -3 -4 -2 -7
3 -7 5 0 23 -25 39 -55 15 -30 32 -55 37 -55 4 0 7 -4 5 -8 -3 -12 36 -82 46
-82 4 0 6 -4 3 -8 -3 -5 4 -19 15 -30 11 -12 17 -22 14 -22 -3 0 2 -13 12 -30
9 -16 20 -30 23 -30 4 0 7 -6 7 -13 0 -7 9 -27 20 -43 11 -16 44 -72 73 -124
30 -52 57 -97 62 -98 4 -2 6 -8 2 -13 -3 -5 0 -9 5 -9 6 0 11 -7 11 -15 0 -8
4 -15 10 -15 5 0 9 -3 8 -7 -4 -11 68 -134 74 -128 2 3 5 -1 5 -7 0 -11 70
-140 134 -246 21 -36 56 -97 87 -152 13 -25 28 -49 33 -54 23 -25 4 -25 -43 1
-29 15 -55 30 -58 33 -3 3 -79 48 -170 100 -91 51 -188 108 -217 126 -28 18
-54 30 -57 27 -3 -4 -6 -2 -6 4 0 6 -8 13 -17 17 -22 7 -77 39 -98 56 -8 7
-15 9 -15 4 0 -5 -4 -4 -8 1 -13 19 -99 65 -107 57 -5 -4 -5 -1 -1 6 4 6 3 12
-3 12 -5 0 -75 38 -156 85 -80 47 -150 85 -156 85 -5 0 -9 5 -9 11 0 5 -4 7
-10 4 -5 -3 -10 -3 -10 2 0 4 -26 22 -58 38 -31 17 -59 33 -62 36 -7 7 -132
77 -145 80 -5 2 -19 11 -29 21 -18 16 -32 22 -39 16 -1 -2 -13 7 -26 19 -13
12 -28 20 -33 17 -4 -3 -8 -1 -8 3 0 10 -60 44 -74 42 -5 0 -12 4 -15 9 -8 14
-113 75 -128 75 -7 0 -13 3 -13 7 0 9 -76 50 -84 45 -3 -3 -4 -2 -1 2 8 10
-55 44 -67 37 -6 -4 -8 -3 -5 3 3 5 -15 20 -41 34 -26 13 -49 26 -52 29 -13
13 -88 49 -94 45 -3 -3 -4 -2 -1 1 4 6 -119 84 -131 84 -2 0 -44 25 -95 55
-50 30 -96 52 -102 48 -5 -3 -7 -2 -4 4 6 9 -62 51 -71 45 -3 -2 -8 0 -11 5
-6 9 -44 33 -111 71 -19 10 -102 59 -185 107 -82 49 -156 88 -162 88 -7 0 -13
4 -13 8 0 6 -21 19 -147 90 -67 38 -560 323 -605 350 -27 16 -48 27 -48 24 0
-3 -8 2 -17 10 -10 8 -22 15 -27 14 -5 0 -12 3 -15 8 -8 12 -168 103 -181 103
-5 0 -10 4 -10 9 0 5 -15 15 -32 22 -18 7 -37 17 -43 22 -23 19 -181 109 -192
110 -7 0 -13 4 -13 9 0 4 -6 8 -14 8 -8 0 -16 4 -18 8 -4 10 -98 65 -98 57 0
-3 -10 3 -22 15 -12 11 -25 20 -29 20 -6 0 -108 58 -159 90 -41 27 -88 49 -94
45 -3 -3 -4 -2 -1 2 5 7 -109 75 -121 73 -4 -1 -10 2 -13 8 -3 5 -37 26 -74
48 -38 21 -90 52 -115 67 -26 15 -62 35 -79 44 -18 9 -33 20 -33 23 0 4 781 7
1736 6 l1737 -1 77 -135z m-3558 16 c31 -19 59 -32 62 -29 3 4 6 1 6 -5 0 -11
38 -28 55 -23 6 1 7 -1 3 -5 -5 -4 0 -12 11 -18 53 -31 97 -54 105 -54 5 0 12
-4 15 -9 3 -4 15 -15 25 -23 18 -13 19 -13 12 0 -6 12 -5 12 6 0 14 -18 154
-100 169 -100 5 0 9 -3 9 -7 0 -5 19 -17 43 -28 23 -11 44 -22 47 -26 12 -13
118 -68 123 -64 4 3 5 2 2 -1 -2 -4 67 -47 153 -96 86 -49 174 -100 195 -114
20 -13 37 -21 37 -17 0 5 4 3 8 -2 10 -15 202 -126 202 -117 0 4 4 2 8 -4 4
-6 27 -22 52 -36 25 -14 74 -42 110 -63 35 -21 70 -38 77 -38 6 0 10 -4 7 -8
-2 -4 6 -11 18 -15 13 -4 25 -10 28 -13 12 -17 138 -80 145 -73 5 4 6 2 2 -3
-5 -9 128 -90 135 -83 2 2 10 -3 18 -10 32 -27 89 -60 94 -54 3 3 6 1 6 -5 0
-10 49 -38 63 -35 4 1 7 -3 7 -10 0 -6 3 -9 6 -5 3 3 15 -3 27 -13 11 -11 24
-17 29 -14 4 3 8 1 8 -3 0 -5 17 -17 37 -28 21 -11 73 -41 117 -67 44 -26 84
-44 89 -41 6 3 8 2 5 -3 -3 -5 34 -31 83 -58 49 -27 87 -51 84 -54 -7 -7
-5182 -8 -5202 -1 -11 3 1 14 40 34 30 16 54 32 52 36 -2 3 1 6 8 6 7 0 57 26
112 58 182 106 217 125 226 125 5 0 9 5 9 10 0 6 7 10 16 10 8 0 12 5 9 10 -4
6 -3 9 2 8 13 -4 73 24 68 31 -2 4 1 8 8 8 22 0 137 70 129 78 -4 4 -2 6 3 2
6 -3 33 8 60 24 28 16 65 36 83 46 17 9 32 21 32 25 0 5 4 7 9 3 5 -3 12 -1
15 4 4 5 31 22 61 37 30 16 51 32 48 38 -3 6 -3 8 2 4 8 -8 85 31 85 42 0 4 6
7 13 7 18 0 227 124 227 134 0 5 3 8 8 7 14 -4 52 14 52 24 0 6 3 8 6 5 7 -6
63 28 75 46 3 5 9 8 13 7 13 -4 126 61 126 72 0 6 3 8 7 5 3 -4 17 0 29 8 27
17 84 50 137 77 20 11 37 24 37 29 0 5 3 8 8 8 18 -3 33 2 28 9 -3 5 0 9 7 9
10 0 76 35 137 73 16 10 101 59 160 93 96 54 126 72 131 80 3 5 10 9 15 9 12
-1 117 59 125 71 3 5 8 7 10 6 6 -4 103 53 111 66 4 5 8 6 8 2 0 -5 10 -1 22
7 29 20 24 21 90 -18z m-2706 -1521 c-9 -14 -14 -25 -11 -25 3 0 -3 -10 -15
-22 -11 -12 -20 -25 -20 -29 0 -5 -16 -34 -34 -65 -19 -32 -32 -62 -29 -67 3
-6 2 -7 -4 -4 -9 6 -49 -60 -45 -75 1 -5 -2 -8 -8 -8 -6 0 -10 -7 -10 -15 0
-8 -4 -15 -8 -15 -8 0 -39 -57 -40 -74 0 -5 -4 -12 -9 -15 -15 -10 -73 -117
-68 -124 3 -4 2 -5 -2 -2 -7 6 -79 -115 -75 -127 1 -5 -2 -8 -7 -8 -10 0 -27
-39 -23 -53 1 -5 -2 -6 -8 -2 -9 5 -12 -1 -9 -21 0 -4 -4 -10 -9 -13 -12 -7
-182 -300 -182 -313 0 -4 -5 -8 -11 -8 -6 0 -8 -7 -5 -16 3 -8 2 -13 -2 -10
-9 5 -47 -63 -44 -76 1 -5 -3 -8 -8 -8 -6 0 -10 -7 -10 -15 0 -8 -3 -15 -8
-15 -4 0 -13 -15 -21 -32 -8 -18 -17 -35 -21 -38 -4 -3 -28 -43 -54 -90 -26
-47 -51 -92 -56 -100 -55 -88 -88 -149 -83 -154 4 -3 2 -6 -4 -6 -9 0 -37 -50
-33 -59 1 -2 -3 -7 -8 -10 -10 -6 -61 -92 -85 -141 -6 -14 -14 -27 -18 -30 -9
-7 -40 -68 -38 -76 0 -4 -3 -10 -8 -13 -4 -3 -15 -15 -23 -25 -13 -18 -13 -19
0 -12 12 6 11 5 -1 -6 -18 -15 -44 -60 -41 -70 1 -5 -2 -8 -8 -8 -5 0 -10 -7
-10 -15 0 -8 -4 -15 -10 -15 -5 0 -10 -4 -10 -10 0 -5 -24 -50 -54 -100 -30
-49 -52 -90 -49 -90 3 0 -1 -7 -8 -16 -15 -18 -22 -30 -59 -95 -13 -24 -23
-47 -22 -51 1 -5 -2 -8 -8 -8 -5 0 -10 -7 -10 -15 0 -8 -4 -15 -8 -15 -5 0
-14 -12 -21 -27 -7 -14 -31 -58 -54 -97 -23 -39 -42 -73 -42 -76 0 -3 -12 -23
-26 -45 -14 -22 -39 -65 -55 -95 -16 -30 -32 -57 -35 -60 -12 -11 -142 -245
-142 -257 0 -7 -3 -10 -7 -8 -8 5 -35 -45 -32 -57 1 -5 -3 -8 -9 -8 -5 0 -7
-4 -4 -10 3 -5 2 -10 -3 -10 -5 0 -21 -24 -37 -52 -15 -29 -37 -65 -47 -80
-11 -16 -16 -34 -12 -40 4 -7 4 -10 -1 -6 -8 7 -135 -202 -135 -222 0 -5 -4
-10 -10 -10 -5 0 -10 -4 -10 -9 0 -4 -30 -60 -66 -122 -65 -111 -85 -145 -123
-211 -10 -18 -62 -109 -116 -203 -54 -93 -98 -175 -98 -182 0 -7 -3 -10 -7 -8
-4 2 -14 -12 -24 -32 -9 -19 -20 -33 -23 -29 -9 8 -9 3016 -1 3016 4 0 52 26
105 58 54 32 105 61 113 65 8 4 24 13 35 20 11 7 47 27 80 46 33 19 63 39 66
44 3 5 9 8 13 7 11 -2 156 83 156 93 0 4 4 6 9 3 5 -3 19 3 32 13 13 10 34 21
47 25 12 4 19 12 16 18 -4 6 -3 9 2 6 11 -7 75 27 69 36 -3 3 -2 4 1 2 6 -5
113 51 124 64 5 6 67 40 117 64 13 6 23 14 23 19 0 4 7 7 15 7 8 0 15 5 15 11
0 5 5 7 10 4 6 -3 10 -1 10 5 0 6 5 8 10 5 6 -3 10 -3 10 2 0 4 23 19 50 32
28 14 50 29 50 33 0 4 3 7 8 6 7 -2 53 21 62 31 3 3 21 14 40 24 64 34 95 52
100 58 3 3 19 12 37 19 17 8 29 18 26 24 -3 5 -2 6 4 3 5 -3 26 5 45 18 20 13
38 22 40 19 3 -2 11 2 18 11 7 8 18 15 26 15 7 0 17 6 21 14 8 14 12 16 34 16
5 0 7 5 4 10 -4 6 -3 9 2 8 18 -5 53 14 47 25 -4 7 -4 9 1 5 8 -8 105 42 139
71 10 9 20 15 22 13 10 -6 103 56 96 64 -4 5 -3 6 2 2 9 -7 51 14 157 78 31
19 62 34 68 34 6 0 11 3 11 8 0 4 25 20 55 36 30 16 55 32 55 36 0 3 6 7 13 7
6 0 31 12 54 26 24 15 47 27 53 27 5 0 10 5 10 10 0 6 7 10 15 10 8 0 15 5 15
12 0 6 3 9 6 6 3 -4 35 11 72 32 37 22 68 37 71 35 2 -3 -4 -16 -13 -30z
m5434 -51 c19 -11 37 -22 38 -27 2 -4 8 -5 13 -1 5 3 9 1 9 -5 0 -10 90 -57
103 -53 5 1 6 -2 3 -7 -6 -9 52 -38 67 -33 5 1 6 -1 3 -6 -2 -4 12 -17 32 -27
20 -11 49 -28 65 -38 15 -10 27 -15 27 -10 0 4 4 3 8 -3 4 -6 34 -26 67 -44
33 -18 65 -36 70 -40 6 -4 30 -19 55 -32 25 -14 80 -46 123 -71 42 -25 77 -44
77 -41 0 3 7 -2 16 -10 8 -9 20 -13 26 -10 6 4 8 3 5 -3 -6 -9 60 -49 76 -45
4 1 7 -2 7 -7 0 -10 39 -27 53 -23 5 1 6 -1 3 -6 -5 -8 63 -47 73 -42 2 1 7
-2 10 -7 9 -13 81 -56 81 -48 0 3 10 -3 22 -15 12 -11 25 -20 29 -20 5 0 28
-14 53 -31 25 -17 51 -27 57 -23 8 4 9 3 5 -4 -4 -7 3 -14 19 -18 14 -3 25
-10 25 -16 0 -5 4 -7 9 -4 5 4 11 2 13 -2 1 -5 23 -20 48 -34 87 -49 126 -71
219 -126 52 -30 101 -55 108 -55 7 0 11 -3 8 -5 -8 -8 108 -71 119 -65 5 4 6
1 2 -5 -4 -7 -3 -12 1 -12 5 0 35 -16 67 -35 32 -19 62 -33 66 -30 5 3 12 -1
17 -8 11 -17 83 -61 83 -50 0 4 4 3 8 -3 9 -15 134 -89 145 -86 4 1 7 -2 7 -6
0 -10 50 -37 63 -34 4 1 7 -2 7 -6 0 -7 39 -30 60 -35 3 -1 13 -8 23 -17 10
-8 19 -13 21 -10 1 3 11 -3 21 -13 17 -18 18 -80 17 -1490 0 -810 -1 -1487 -1
-1505 -1 -40 -9 -36 -36 15 -11 21 -22 40 -25 43 -3 3 -12 19 -20 35 -8 17
-17 32 -20 35 -3 3 -19 31 -35 62 -16 31 -34 54 -40 51 -5 -4 -7 -2 -3 2 8 9
-37 94 -56 107 -7 5 -7 8 -1 8 6 0 2 7 -8 14 -10 8 -18 17 -17 20 2 11 -54
116 -62 116 -4 0 -8 4 -8 9 0 13 -111 204 -122 212 -6 3 -9 9 -9 13 3 20 0 26
-11 20 -7 -4 -10 -3 -6 1 8 9 -37 94 -56 107 -6 4 -7 8 -2 8 5 0 3 8 -6 18 -8
9 -25 38 -38 64 -13 26 -27 45 -30 43 -4 -2 -7 2 -7 8 0 15 -152 279 -165 288
-5 3 -9 8 -7 10 6 11 -14 48 -23 43 -6 -4 -8 -3 -5 2 8 14 -47 106 -58 97 -4
-5 -5 -2 -1 5 4 7 -6 32 -23 58 -17 25 -31 47 -31 49 0 8 -74 130 -83 136 -5
3 -8 8 -7 10 4 8 -24 59 -32 59 -4 0 -7 3 -6 8 3 10 -78 153 -84 147 -2 -3 -5
1 -5 8 -1 17 -59 118 -65 112 -2 -3 -5 1 -5 8 0 7 -17 42 -38 77 -21 36 -49
85 -63 110 -14 25 -29 48 -34 51 -6 3 -9 9 -9 13 3 20 0 26 -11 20 -6 -4 -8
-3 -4 4 3 6 -2 18 -11 28 -10 10 -17 20 -17 23 3 13 -20 50 -27 45 -5 -3 -6 1
-3 9 3 8 -2 20 -11 27 -8 7 -15 19 -15 27 0 8 -4 12 -8 9 -5 -3 -9 1 -9 7 0 7
-35 73 -78 147 -43 74 -92 160 -108 190 -17 30 -33 57 -37 60 -4 3 -10 15 -14
28 -4 12 -12 20 -17 17 -5 -3 -6 2 -2 11 4 10 2 15 -4 11 -5 -3 -10 -1 -10 6
-1 23 -60 117 -68 110 -4 -5 -5 -3 -2 3 4 6 -7 32 -23 58 -17 26 -30 48 -30
51 0 8 -75 130 -83 136 -5 3 -9 10 -9 15 -1 20 -21 53 -29 48 -5 -3 -6 2 -3
10 3 9 2 16 -4 16 -6 0 -14 10 -19 23 -14 38 -94 177 -102 177 -4 0 -8 6 -8
13 0 6 -23 50 -51 97 -27 47 -62 105 -76 130 -15 25 -29 53 -33 63 -3 9 -9 17
-14 17 -5 0 -9 4 -9 9 0 5 -23 49 -51 98 -29 48 -65 113 -82 143 -16 30 -38
67 -49 82 -10 14 -18 28 -18 31 0 3 -22 43 -50 89 -27 46 -50 87 -50 91 0 4
28 -7 63 -26 34 -19 78 -43 97 -53z m-2900 -14 c0 -5 -97 -63 -280 -166 -202
-115 -329 -192 -325 -198 3 -3 2 -4 -2 -1 -7 5 -114 -53 -124 -68 -3 -5 -10
-9 -15 -9 -13 1 -118 -60 -126 -72 -4 -6 -8 -8 -8 -3 0 4 -17 -3 -38 -17 -21
-13 -155 -91 -299 -174 -144 -82 -259 -153 -255 -157 4 -4 2 -6 -3 -4 -6 1
-19 -2 -30 -6 -30 -13 -119 -68 -126 -78 -3 -5 -10 -9 -15 -9 -9 0 -205 -108
-214 -118 -3 -3 -21 -13 -40 -23 -68 -36 -95 -52 -108 -64 -7 -7 -18 -13 -23
-13 -5 0 -28 -12 -51 -26 -23 -15 -63 -38 -88 -53 -25 -14 -112 -64 -193 -111
-81 -47 -159 -92 -174 -100 -16 -8 -46 -26 -68 -39 -22 -13 -56 -33 -75 -44
-171 -97 -260 -151 -260 -159 0 -5 -4 -7 -9 -4 -5 3 -51 -19 -102 -50 -52 -31
-108 -64 -126 -72 -18 -8 -29 -20 -26 -26 3 -6 3 -8 -2 -4 -4 4 -26 -3 -49
-16 -243 -138 -335 -194 -331 -199 3 -4 2 -5 -2 -2 -3 3 -25 -6 -48 -19 -32
-19 -42 -21 -42 -10 0 7 4 14 7 14 9 0 36 62 32 73 -1 5 2 6 7 2 6 -3 13 6 17
20 3 14 9 25 13 25 8 0 36 62 33 73 -1 5 2 6 7 3 5 -3 15 9 22 27 7 17 17 37
21 42 22 27 75 125 70 129 -3 3 -1 6 4 6 6 0 21 22 35 50 13 27 27 50 32 50 4
0 7 4 7 9 0 6 76 141 169 300 93 160 166 291 163 291 -4 0 -1 4 6 9 7 4 14 15
15 23 2 8 8 21 15 29 21 24 121 199 114 199 -4 0 -2 4 4 8 15 10 217 364 217
379 0 7 2 11 5 8 6 -5 172 279 172 295 0 5 4 10 8 10 5 0 14 10 19 23 l11 23
1226 0 c674 0 1226 -2 1226 -6z m2681 -10 c8 -8 23 -34 33 -57 10 -23 22 -41
26 -38 4 2 7 -2 7 -8 0 -12 80 -155 93 -167 3 -3 14 -24 25 -47 11 -24 23 -43
28 -43 4 0 7 -4 7 -9 0 -5 32 -65 71 -133 39 -67 83 -143 97 -167 14 -25 38
-68 55 -95 35 -59 36 -62 152 -266 49 -85 91 -157 94 -160 3 -3 20 -31 36 -62
17 -32 33 -58 38 -58 4 0 7 -5 7 -11 0 -6 16 -38 36 -72 20 -34 50 -87 67
-117 17 -30 33 -57 36 -60 3 -3 19 -31 35 -62 16 -31 34 -54 39 -51 6 3 7 1 3
-5 -5 -9 13 -46 73 -142 9 -14 27 -46 41 -72 14 -27 32 -56 40 -66 8 -10 16
-24 17 -30 2 -6 16 -33 33 -60 16 -27 30 -52 30 -54 0 -6 -89 41 -175 93 -27
16 -61 35 -75 42 -14 6 -27 14 -30 18 -6 8 -69 40 -72 37 -2 -1 -12 6 -23 15
-11 9 -24 17 -29 16 -5 0 -12 3 -15 8 -6 8 -109 73 -116 73 -2 0 -28 14 -57
31 -174 104 -315 182 -325 182 -7 0 -11 2 -8 5 4 4 -69 48 -188 115 -12 6 -30
18 -39 26 -10 8 -18 11 -18 8 0 -3 -24 10 -52 29 -29 19 -63 37 -75 40 -13 4
-23 9 -23 13 0 6 -71 45 -77 42 -2 -1 -12 8 -23 19 -12 12 -25 18 -30 15 -4
-3 -10 -1 -12 3 -1 5 -111 70 -243 146 -132 76 -257 149 -277 162 -21 13 -40
24 -44 24 -3 0 -19 9 -35 21 -16 11 -29 17 -29 12 0 -4 -4 -3 -8 3 -10 14
-174 107 -189 107 -7 0 -10 3 -8 7 4 7 -31 27 -49 28 -5 0 -12 4 -15 9 -6 9
-143 90 -261 156 -50 27 -296 170 -320 185 -14 9 -28 17 -32 18 -5 1 -11 3
-15 4 -5 1 -12 2 -16 1 -5 -1 -6 2 -3 7 2 4 -16 19 -42 33 -26 13 -48 27 -50
32 -2 4 -8 7 -13 7 -5 0 -27 11 -49 25 -22 14 -40 23 -40 20 0 -3 -6 -1 -12 5
-22 18 -81 54 -123 75 -22 11 -42 23 -45 26 -12 13 -120 70 -120 63 0 -4 -6
-1 -12 8 -7 9 -35 28 -63 43 -27 15 -56 32 -62 37 -7 6 -13 7 -13 4 0 -4 -7
-1 -15 8 -8 8 -15 16 -15 19 0 2 550 3 1223 3 1074 -1 1225 -3 1238 -16z
m-2495 -90 c26 -14 53 -29 59 -33 29 -22 125 -75 125 -69 0 4 4 2 8 -3 7 -10
37 -29 122 -78 19 -10 76 -44 127 -73 50 -30 96 -54 102 -54 6 0 11 -4 11 -8
0 -4 27 -21 60 -37 33 -17 60 -33 60 -37 0 -5 4 -8 9 -8 9 0 41 -18 166 -92
17 -10 42 -23 58 -29 15 -6 27 -15 27 -21 0 -5 4 -7 9 -4 5 4 11 2 13 -2 4
-10 109 -71 122 -70 5 0 12 -4 15 -10 8 -12 147 -92 160 -92 6 0 11 -4 11 -9
0 -5 8 -11 18 -14 9 -4 35 -17 57 -30 41 -25 473 -275 535 -310 19 -11 130
-75 245 -142 116 -68 233 -135 260 -150 28 -15 92 -53 144 -83 52 -30 100 -55
107 -55 7 0 11 -3 9 -6 -2 -4 22 -20 53 -36 31 -17 59 -33 60 -38 2 -4 8 -5
13 -1 5 3 9 2 9 -3 0 -4 26 -21 58 -38 31 -16 59 -32 62 -36 5 -5 109 -65 205
-119 22 -12 45 -26 50 -30 11 -8 90 -53 150 -84 22 -12 45 -25 52 -31 6 -5 90
-55 186 -109 l175 -100 -1 -2187 0 -2188 -53 -28 c-29 -15 -51 -30 -49 -34 2
-3 -1 -6 -8 -6 -19 0 -247 -134 -247 -145 0 -5 -4 -7 -9 -4 -8 5 -209 -108
-238 -134 -7 -6 -13 -8 -13 -5 0 4 -13 -3 -29 -14 -16 -12 -34 -21 -40 -21 -7
0 -14 -6 -17 -13 -3 -8 -10 -14 -17 -14 -7 0 -48 -22 -92 -48 -44 -26 -105
-61 -135 -78 -30 -16 -57 -32 -60 -36 -3 -3 -35 -22 -72 -41 -36 -19 -65 -37
-63 -41 2 -3 -1 -6 -8 -6 -7 0 -71 -34 -142 -75 -72 -42 -146 -85 -165 -96
-46 -26 -481 -277 -688 -397 -9 -5 -67 -38 -127 -73 -61 -35 -119 -68 -130
-75 -70 -41 -126 -73 -255 -148 -80 -45 -148 -87 -151 -92 -3 -5 -9 -8 -13 -8
-9 2 -99 -51 -107 -62 -3 -5 -8 -8 -10 -7 -8 4 -79 -34 -79 -42 0 -4 -6 -8
-14 -8 -8 0 -22 -7 -30 -16 -9 -8 -16 -13 -16 -9 0 3 -12 -2 -28 -12 -39 -26
-60 -38 -117 -69 -27 -14 -62 -35 -77 -45 -14 -11 -29 -19 -32 -19 -4 0 -25
-12 -49 -27 -23 -14 -67 -40 -97 -56 -30 -17 -57 -33 -60 -37 -3 -3 -20 -12
-37 -19 -18 -7 -30 -18 -26 -24 3 -5 2 -7 -4 -4 -5 3 -51 -18 -101 -48 -51
-29 -92 -50 -92 -46 0 8 -37 28 -54 29 -5 0 -12 5 -15 10 -5 7 -118 75 -311
184 -19 11 -72 42 -118 69 -45 27 -85 49 -87 49 -2 0 -33 18 -67 40 -35 22
-69 40 -75 40 -7 0 -13 4 -13 8 0 5 -16 14 -35 22 -19 8 -35 17 -35 22 0 4 -4
8 -8 8 -8 0 -392 220 -447 256 -14 9 -25 12 -25 8 0 -5 -4 -4 -8 1 -8 13 -99
66 -108 64 -4 0 -10 3 -13 8 -10 15 -81 55 -81 46 0 -4 -4 -3 -8 4 -6 9 -89
60 -289 174 -18 10 -33 15 -33 11 0 -4 -5 1 -11 11 -5 9 -14 17 -19 17 -5 0
-35 16 -66 34 -32 19 -62 32 -67 29 -6 -3 -7 -1 -3 5 3 6 -4 14 -16 17 -13 4
-30 13 -38 20 -8 7 -40 25 -70 41 -30 16 -59 33 -65 37 -14 11 -246 147 -250
147 -2 0 -38 20 -79 45 -42 25 -79 45 -81 45 -2 0 -25 13 -51 30 -26 16 -52
27 -58 23 -6 -3 -8 -3 -4 2 10 10 -173 116 -186 108 -5 -4 -6 -1 -3 4 4 6 -8
17 -26 24 -17 7 -36 17 -42 21 -23 20 -125 76 -125 70 0 -4 -4 -2 -8 4 -9 13
-238 146 -248 144 -4 -1 -10 3 -13 8 -3 5 -33 25 -66 43 -102 57 -110 62 -233
133 l-119 70 0 2185 c0 1808 2 2187 13 2198 7 8 15 13 16 12 8 -3 58 25 58 33
0 4 3 7 8 6 7 -3 48 20 285 159 60 35 110 63 113 63 2 0 28 16 58 35 30 19 57
35 59 35 3 0 56 30 118 66 162 95 179 104 229 133 25 13 47 27 50 30 3 3 31
19 63 36 31 16 57 33 57 37 0 4 3 7 8 6 9 -3 430 237 459 262 7 5 15 10 18 10
5 0 110 60 225 129 19 11 42 24 50 27 27 13 135 79 141 87 3 5 9 8 13 8 10 -2
68 29 104 56 17 13 32 21 32 18 0 -4 13 3 29 14 16 12 34 21 40 21 6 0 11 3
11 8 0 4 23 18 50 31 28 13 50 28 50 34 0 6 3 8 6 4 4 -3 31 9 60 28 30 19 56
35 59 35 3 0 34 18 70 40 36 22 70 40 75 40 6 0 10 5 10 10 0 6 5 10 11 10 13
0 151 80 160 93 3 5 10 9 15 9 17 1 54 21 54 30 0 4 3 7 8 6 13 -3 62 25 62
35 0 6 3 7 6 4 4 -4 19 2 34 13 16 11 33 20 38 20 6 0 17 9 25 20 8 11 17 17
20 14 3 -3 18 3 34 13 15 11 72 44 125 73 53 30 94 58 91 64 -3 5 -1 6 5 2 6
-4 30 5 52 19 23 14 57 35 76 46 95 53 301 173 318 185 15 10 21 10 31 1 7 -7
34 -24 61 -37z m-7379 -4330 c0 -2304 -3 -4190 -6 -4190 -4 0 -21 26 -39 58
-18 31 -43 75 -56 97 -26 46 -353 611 -494 855 -52 91 -104 181 -115 200 -10
19 -42 73 -70 120 -27 47 -61 105 -75 130 -14 25 -140 243 -280 485 -140 242
-268 465 -285 495 -16 30 -33 60 -37 65 -4 6 -17 26 -27 45 -64 113 -268 466
-272 470 -4 3 -15 23 -27 45 -11 22 -62 112 -114 200 -51 88 -103 178 -115
200 -13 22 -46 81 -75 130 -58 100 -75 129 -112 195 -14 25 -53 92 -86 148
-34 57 -62 106 -62 108 0 2 -18 34 -41 70 -35 59 -39 70 -30 92 6 13 80 142
163 285 83 144 194 336 246 427 52 91 120 208 150 260 30 52 181 313 334 580
154 267 304 526 333 575 29 50 104 180 167 290 64 110 141 245 173 300 260
449 385 667 407 705 14 25 67 116 117 202 50 86 91 159 91 163 0 4 6 13 13 20
6 8 57 93 112 189 55 97 103 176 106 176 3 0 6 -1885 6 -4190z m14648 4138
c17 -29 42 -73 56 -98 14 -25 77 -133 139 -240 62 -107 122 -211 132 -230 11
-19 87 -150 168 -290 81 -140 156 -271 167 -290 11 -19 87 -150 168 -290 81
-140 156 -269 165 -286 149 -260 193 -334 201 -334 6 0 7 -5 4 -10 -3 -6 2
-22 13 -38 16 -22 104 -174 194 -332 11 -19 37 -64 58 -100 21 -36 47 -81 57
-100 11 -19 85 -147 165 -285 80 -137 206 -356 280 -485 223 -388 290 -503
315 -542 12 -21 23 -40 23 -43 0 -2 18 -34 40 -70 22 -36 40 -69 40 -74 0 -4
-63 -117 -140 -250 -77 -133 -150 -260 -164 -284 -13 -23 -163 -283 -334 -578
-339 -586 -324 -560 -433 -751 -42 -73 -125 -216 -184 -318 -59 -102 -117
-203 -130 -225 -12 -22 -64 -111 -114 -197 -87 -151 -141 -244 -369 -639 -56
-97 -102 -181 -102 -187 0 -6 -4 -12 -8 -14 -4 -1 -71 -113 -149 -248 -172
-299 -165 -287 -233 -404 -30 -53 -57 -96 -61 -96 -3 0 -6 1886 -6 4190 0
2305 3 4190 6 4190 3 0 20 -23 36 -52z m-12683 -4125 c0 -1649 -1 -3007 -2
-3018 l-1 -20 -11 20 c-6 11 -15 23 -20 26 -6 3 -9 9 -9 13 2 13 -33 75 -39
71 -4 -2 -7 1 -7 8 0 17 -69 138 -75 132 -2 -3 -5 1 -5 8 -1 23 -60 117 -69
110 -5 -5 -6 -4 -2 1 8 10 -37 95 -56 108 -6 4 -7 8 -2 8 5 0 4 6 -2 13 -15
18 -72 120 -79 140 -3 9 -9 17 -14 17 -5 0 -9 7 -9 15 0 8 -5 15 -12 15 -6 0
-8 3 -5 6 4 4 -1 19 -11 33 -36 55 -43 67 -48 84 -4 9 -10 17 -15 17 -5 0 -8
3 -7 8 3 10 -71 135 -86 144 -6 4 -7 8 -3 8 9 0 -31 71 -46 81 -5 3 -8 8 -7
10 4 8 -24 59 -32 59 -4 0 -7 3 -6 8 3 12 -24 62 -34 62 -4 0 -7 3 -6 8 3 14
-25 61 -33 56 -5 -3 -6 3 -2 12 5 13 3 15 -7 9 -7 -5 -11 -4 -8 1 7 10 -27 76
-34 68 -3 -2 -8 9 -12 26 -3 17 -10 29 -14 26 -5 -3 -9 0 -9 7 0 14 -163 299
-176 308 -5 3 -8 10 -8 15 1 5 -5 16 -12 24 -7 8 -13 17 -13 20 -1 14 -81 149
-86 145 -2 -3 -5 1 -5 7 0 22 -170 308 -177 300 -4 -4 -6 -2 -4 3 4 14 -23 76
-31 70 -4 -2 -8 1 -8 8 0 18 -139 257 -146 252 -4 -3 -5 -2 -2 2 5 7 -53 114
-68 124 -5 3 -8 10 -8 15 1 5 -6 17 -14 27 -8 9 -13 17 -11 17 3 0 -19 40 -47
89 -29 49 -61 104 -71 123 -19 32 -21 58 -6 68 9 6 41 67 39 76 0 4 3 10 8 13
12 8 72 113 71 125 0 5 5 12 10 15 8 5 58 89 108 181 10 19 23 38 28 41 5 4 5
12 2 18 -4 6 0 14 8 17 9 3 16 12 16 19 0 7 4 15 9 17 5 2 20 26 35 53 15 28
35 64 46 80 10 17 27 46 36 65 10 19 24 43 32 53 8 9 11 17 6 17 -5 0 -4 4 1
8 11 7 95 146 95 157 0 3 9 18 19 33 33 47 106 177 103 185 -1 4 2 7 6 7 10 0
37 50 34 63 -1 4 2 7 8 7 5 0 10 7 10 15 0 8 5 15 10 15 6 0 10 4 10 9 0 6 32
64 70 130 39 66 70 124 70 130 0 6 4 11 9 11 10 0 37 60 33 73 -1 5 2 6 7 3 5
-3 15 9 22 27 7 17 16 34 19 37 4 3 20 30 37 60 17 30 72 127 123 215 51 87
93 165 93 172 0 7 3 10 7 8 6 -4 29 36 41 70 2 6 10 18 19 28 8 10 13 20 12
24 -2 3 0 9 5 12 12 8 83 129 83 141 0 5 6 15 13 22 19 20 150 251 150 265 0
7 4 10 9 7 7 -5 10 3 7 22 0 4 3 10 8 13 14 9 86 133 86 147 0 7 3 11 7 9 4
-2 15 14 24 36 10 22 20 38 23 35 4 -3 6 -1355 5 -3003z m10758 2867 c0 -5 3
-10 8 -12 4 -1 20 -29 37 -60 16 -31 34 -54 39 -51 5 3 7 2 3 -3 -6 -11 57
-127 65 -119 2 3 5 -1 5 -7 0 -15 204 -372 215 -376 5 -2 6 -8 2 -13 -3 -5 0
-9 5 -9 6 0 11 -7 11 -15 0 -8 5 -15 12 -15 6 0 8 -3 5 -7 -4 -3 1 -18 10 -32
9 -14 41 -69 71 -121 30 -52 59 -98 64 -101 6 -3 9 -8 8 -10 -4 -9 24 -59 33
-59 6 0 8 -3 4 -6 -3 -3 12 -35 34 -70 21 -35 39 -69 39 -75 0 -5 4 -8 8 -5 5
3 9 0 9 -7 0 -15 193 -350 207 -359 7 -5 7 -8 1 -8 -5 0 -1 -7 9 -15 11 -8 16
-15 12 -15 -4 0 2 -17 14 -37 13 -21 30 -51 40 -68 65 -114 95 -161 103 -166
5 -3 9 -10 9 -15 1 -22 32 -73 41 -67 6 3 7 2 4 -4 -3 -5 9 -34 27 -65 19 -30
37 -65 41 -77 3 -12 11 -19 16 -15 5 3 9 2 8 -3 -2 -15 13 -53 22 -53 5 0 9
-4 9 -9 0 -5 23 -49 51 -98 29 -48 63 -108 77 -133 65 -116 136 -236 145 -241
5 -3 7 -9 5 -11 -5 -9 42 -88 53 -88 6 0 7 -4 4 -10 -3 -5 3 -17 14 -27 11 -9
17 -21 14 -26 -3 -6 2 -16 12 -24 11 -7 15 -13 11 -13 -4 0 0 -10 8 -22 22
-32 20 -42 -19 -110 -20 -33 -37 -65 -38 -71 -1 -6 -8 -17 -15 -26 -23 -27
-121 -201 -114 -201 4 0 2 -4 -4 -8 -11 -7 -43 -63 -46 -79 0 -5 -8 -13 -17
-20 -9 -7 -11 -13 -6 -13 6 0 6 -3 -1 -8 -14 -9 -97 -154 -97 -169 0 -7 -4
-10 -9 -7 -4 3 -8 0 -8 -6 0 -6 -11 -28 -25 -50 -14 -22 -22 -40 -18 -40 3 0
-4 -11 -17 -25 -13 -14 -19 -25 -14 -25 5 0 4 -4 -2 -8 -5 -4 -50 -77 -99
-162 -49 -85 -97 -167 -106 -181 -10 -14 -16 -29 -12 -33 3 -3 2 -6 -4 -6 -9
0 -37 -50 -33 -59 1 -2 -3 -7 -8 -10 -5 -3 -23 -32 -41 -64 -18 -32 -68 -119
-111 -193 -43 -74 -76 -134 -72 -134 4 0 2 -4 -3 -8 -14 -9 -95 -147 -95 -160
0 -6 -3 -12 -8 -14 -10 -4 -142 -234 -142 -248 0 -5 -4 -10 -8 -10 -10 0 -37
-50 -34 -62 1 -5 -3 -8 -9 -8 -5 0 -7 -4 -4 -10 3 -5 2 -10 -3 -10 -9 0 -64
-94 -62 -106 1 -4 -2 -10 -8 -13 -5 -3 -31 -44 -57 -91 -27 -47 -57 -97 -67
-112 -11 -16 -16 -28 -12 -28 4 0 0 -8 -8 -17 -24 -29 -78 -129 -73 -136 3 -4
2 -5 -2 -2 -5 4 -148 -235 -154 -260 -1 -5 -9 -16 -16 -23 -7 -8 -10 -19 -7
-25 5 -9 4 -9 -5 -1 -10 9 -13 642 -13 3000 0 1644 1 3000 1 3014 1 20 9 12
41 -43 22 -38 40 -72 40 -77z m-9306 -2884 c0 -1164 -4 -2119 -7 -2122 -4 -4
-10 2 -14 12 -11 31 -76 138 -87 146 -6 4 -7 8 -2 8 6 0 1 7 -10 16 -10 8 -14
13 -7 10 6 -3 -11 31 -38 76 -27 46 -49 87 -49 91 0 5 -5 5 -10 2 -6 -4 -9 -3
-8 2 4 13 -23 73 -34 73 -5 0 -7 4 -3 9 3 6 -1 13 -9 18 -8 4 -14 10 -14 13 0
13 -26 60 -34 60 -4 0 -7 3 -7 8 3 20 -2 32 -13 26 -6 -4 -8 -3 -4 4 3 6 0 16
-7 24 -7 7 -14 15 -14 18 -3 17 -37 78 -43 75 -3 -2 -7 6 -7 17 -1 11 -11 30
-22 42 -12 12 -21 27 -21 34 0 6 -10 21 -22 33 -13 12 -16 18 -9 14 9 -5 6 4
-7 22 -12 17 -22 36 -22 43 0 6 -6 8 -12 4 -7 -4 -10 -4 -6 1 6 7 -16 59 -32
75 -3 3 -16 25 -29 50 -14 25 -27 47 -30 50 -3 3 -19 31 -36 63 -16 31 -33 57
-38 57 -4 0 -6 4 -3 9 4 5 3 11 -1 13 -5 1 -19 24 -33 51 -13 26 -29 47 -34
47 -5 0 -7 3 -4 6 3 3 -24 56 -59 117 -74 126 -105 180 -143 250 -15 26 -30
44 -35 40 -4 -5 -6 -3 -3 2 8 15 -10 57 -22 50 -6 -4 -10 -3 -9 2 4 19 -24 73
-34 66 -7 -3 -9 -2 -5 2 8 9 -37 94 -56 107 -6 4 -8 8 -4 8 4 0 -13 35 -38 77
l-45 77 18 40 c10 22 16 45 15 51 -2 5 0 7 4 2 9 -9 74 104 67 117 -4 5 -2 6
4 3 5 -3 19 13 31 36 12 23 35 65 51 92 49 82 74 130 72 134 -2 2 1 7 6 10 10
7 61 92 62 104 0 4 7 15 16 23 8 9 13 20 10 25 -4 5 -2 9 4 9 9 0 43 56 52 85
2 6 11 19 21 29 10 11 18 23 18 27 0 4 27 53 60 108 32 56 56 101 52 101 -4 0
-2 4 3 8 15 10 88 134 88 150 0 6 2 10 5 7 3 -2 18 21 35 53 16 31 36 65 45
75 8 9 11 17 6 17 -5 0 -4 4 2 8 18 13 74 119 66 127 -4 5 -1 5 6 1 11 -6 14
0 11 20 0 4 4 10 9 13 14 8 115 183 115 199 0 6 4 12 8 12 9 0 54 82 50 89 -2
2 1 7 6 10 11 7 31 39 72 114 18 32 45 79 61 105 16 26 39 67 51 90 12 24 24
39 28 34 3 -6 6 -962 5 -2126z m7819 2079 c4 3 5 2 2 -1 -6 -9 47 -104 58
-104 5 0 5 -4 2 -10 -3 -5 -3 -10 2 -10 4 0 14 -15 22 -32 8 -18 17 -35 20
-38 3 -3 14 -21 24 -40 34 -67 80 -145 91 -152 6 -4 8 -8 4 -8 -4 0 3 -15 16
-34 12 -19 28 -48 36 -65 7 -17 17 -28 23 -24 5 3 7 1 3 -5 -3 -6 1 -17 9 -26
9 -8 15 -17 14 -18 -3 -8 35 -77 41 -73 4 2 7 -2 7 -8 0 -7 40 -83 90 -168
130 -221 140 -238 170 -296 15 -29 31 -49 37 -46 6 3 8 3 4 -2 -8 -8 48 -114
66 -127 7 -5 7 -8 1 -8 -6 0 -6 -3 0 -8 6 -4 22 -29 35 -55 14 -26 34 -58 45
-70 11 -12 18 -23 16 -25 -6 -5 33 -72 42 -72 4 0 6 -4 2 -9 -3 -5 0 -15 7
-23 7 -7 24 -35 38 -61 13 -26 28 -47 33 -47 4 0 6 -4 2 -9 -3 -5 -1 -12 4
-15 5 -4 22 -31 37 -61 15 -30 31 -52 34 -50 4 2 7 -1 7 -8 0 -7 26 -57 58
-112 98 -168 96 -163 69 -192 -13 -14 -21 -29 -19 -33 3 -5 2 -10 -3 -12 -10
-4 -67 -101 -65 -110 2 -3 -4 -12 -12 -18 -8 -7 -15 -17 -15 -22 0 -5 -9 -21
-20 -35 -11 -14 -17 -30 -13 -36 3 -5 1 -7 -4 -4 -6 4 -13 -2 -16 -13 -8 -31
-10 -34 -24 -48 -7 -8 -10 -18 -7 -24 4 -7 2 -8 -4 -4 -11 6 -14 0 -11 -20 0
-4 -4 -10 -9 -13 -5 -3 -51 -78 -102 -166 -50 -88 -96 -165 -102 -172 -5 -7
-6 -18 -2 -25 4 -7 3 -10 -1 -5 -5 4 -20 -14 -35 -40 -46 -83 -112 -197 -129
-223 -8 -14 -14 -32 -12 -40 1 -8 0 -12 -4 -8 -7 7 -185 -293 -185 -312 0 -5
-4 -10 -8 -10 -8 0 -34 -47 -34 -60 0 -3 -5 -12 -12 -20 -21 -24 -71 -114 -68
-122 1 -5 -2 -8 -7 -8 -10 0 -27 -39 -23 -53 1 -5 -1 -6 -6 -3 -8 5 -43 -52
-41 -68 0 -5 -3 -12 -8 -15 -16 -11 -72 -109 -66 -115 4 -3 1 -6 -5 -6 -11 0
-28 -38 -24 -53 1 -5 -1 -6 -6 -4 -4 3 -21 -20 -37 -51 -17 -31 -33 -59 -36
-62 -3 -3 -13 -18 -22 -35 -9 -16 -17 -25 -17 -20 -2 13 -2 4203 0 4235 1 24
1 24 18 -8 10 -18 21 -30 25 -27z m-11088 -2155 c22 -38 43 -70 48 -70 4 0 6
-3 5 -7 -3 -13 24 -63 34 -63 4 0 7 -3 6 -7 -2 -7 18 -48 47 -95 5 -9 40 -69
76 -133 36 -63 68 -114 70 -112 2 1 3 0 2 -2 -4 -6 48 -95 59 -102 6 -3 9 -8
8 -10 -4 -8 24 -59 32 -59 4 0 7 -3 6 -7 -3 -13 24 -63 34 -63 4 0 7 -3 6 -7
-3 -13 24 -63 34 -63 4 0 7 -3 6 -7 -3 -13 24 -63 34 -63 4 0 7 -3 6 -7 -1 -5
17 -42 41 -83 24 -41 51 -87 60 -102 8 -16 18 -28 21 -28 4 0 7 -6 7 -12 1
-18 129 -238 135 -233 3 3 5 -1 5 -8 0 -15 192 -350 205 -358 5 -3 10 -10 10
-15 1 -18 21 -54 30 -54 5 0 6 -5 3 -10 -3 -6 1 -13 9 -16 9 -3 13 -11 9 -17
-3 -5 2 -16 11 -23 10 -7 17 -14 16 -16 -4 -8 24 -58 33 -58 6 0 8 -3 5 -6 -5
-5 25 -58 50 -89 4 -5 9 -13 10 -18 4 -25 78 -144 86 -140 5 4 6 2 3 -4 -3 -5
10 -35 29 -67 18 -31 34 -60 34 -65 0 -4 8 -16 18 -27 10 -10 19 -23 21 -29 4
-18 174 -310 183 -316 5 -3 10 -10 10 -15 -1 -13 60 -118 70 -122 4 -2 6 -7 3
-12 -3 -4 2 -13 10 -20 8 -7 15 -16 15 -21 0 -11 61 -112 73 -120 5 -3 8 -8 7
-10 -4 -8 24 -59 32 -59 4 0 7 -3 7 -7 -3 -19 2 -34 9 -29 5 3 9 0 9 -7 0 -7
39 -79 87 -161 47 -82 86 -153 86 -158 0 -5 6 -6 13 -2 6 4 9 4 5 -1 -6 -7 16
-59 32 -75 3 -3 16 -25 29 -50 14 -25 32 -51 40 -58 9 -8 11 -11 4 -8 -6 4 7
-25 30 -64 23 -39 47 -79 53 -90 6 -11 13 -18 16 -15 2 3 5 -1 5 -7 0 -22 290
-518 297 -510 4 4 6 2 4 -3 -4 -14 23 -76 31 -70 4 2 8 -2 8 -8 0 -7 17 -42
38 -77 21 -36 51 -90 68 -120 17 -30 36 -59 44 -63 7 -5 11 -12 8 -18 -3 -5 8
-29 24 -53 17 -25 31 -50 31 -56 0 -6 6 -8 13 -4 6 4 9 4 5 -1 -7 -7 24 -69
41 -85 4 -3 7 -11 9 -18 3 -17 52 -95 64 -103 5 -3 9 -10 9 -15 -2 -14 32 -74
42 -74 4 0 5 -4 2 -10 -3 -5 -1 -10 4 -10 6 0 10 -3 9 -7 -1 -5 17 -40 40 -80
23 -39 45 -79 48 -87 3 -9 10 -13 15 -10 5 3 6 -3 2 -12 -4 -10 -2 -15 4 -11
5 3 10 1 10 -6 0 -16 62 -120 77 -129 6 -4 7 -8 2 -8 -4 0 -1 -11 8 -24 15
-24 35 -58 84 -146 14 -25 29 -48 34 -51 6 -3 9 -10 9 -15 -1 -5 5 -16 13 -26
8 -9 12 -19 9 -22 -4 -3 -1 -6 5 -6 7 0 11 -3 10 -7 -3 -13 24 -63 32 -58 4 2
7 -1 7 -8 0 -7 44 -88 97 -181 54 -92 96 -169 94 -171 -2 -2 -41 18 -88 45
-46 27 -89 46 -95 43 -5 -4 -7 -2 -3 2 8 8 -107 78 -129 78 -7 0 -10 4 -7 8 3
5 -7 11 -21 15 -14 3 -25 10 -25 14 0 5 -16 14 -35 21 -19 7 -35 17 -35 22 0
4 -4 5 -10 2 -5 -3 -10 -2 -10 3 0 9 -50 37 -62 34 -5 -1 -8 2 -8 6 0 8 -51
36 -59 32 -2 -1 -7 2 -10 7 -13 19 -164 102 -174 96 -5 -3 -7 -1 -4 4 7 11
-50 40 -66 35 -5 -1 -6 1 -3 6 2 4 -12 17 -32 28 -20 10 -102 57 -181 103 -80
46 -151 84 -158 84 -6 0 -10 4 -8 8 5 7 -55 35 -68 31 -5 -1 -6 2 -3 7 7 10
-32 27 -49 22 -5 -1 -7 1 -2 5 7 7 -132 90 -145 86 -5 -1 -8 2 -8 6 0 8 -50
36 -58 33 -1 -1 -10 5 -18 14 -9 8 -20 12 -26 9 -6 -4 -8 -3 -5 3 4 6 -13 19
-36 29 -23 10 -44 21 -47 25 -5 7 -56 37 -123 71 -20 11 -40 24 -43 29 -3 5
-10 7 -15 4 -5 -4 -9 -2 -9 3 0 9 -36 29 -54 30 -5 0 -12 4 -15 10 -3 5 -27
20 -52 34 -82 46 -94 53 -99 59 -3 3 -10 8 -15 10 -9 3 -338 191 -385 220
-110 66 -220 126 -224 121 -3 -3 -6 0 -6 6 0 7 -7 12 -15 12 -8 0 -15 4 -15 8
0 9 -114 69 -117 62 -1 -3 -9 4 -17 15 -9 11 -16 16 -16 10 0 -6 -3 -6 -8 1
-13 19 -98 64 -107 56 -4 -4 -5 -1 -1 6 6 11 0 14 -20 11 -4 0 -10 3 -13 8 -8
12 -129 83 -142 83 -5 0 -9 5 -9 10 0 6 -5 10 -10 10 -6 0 -35 16 -65 35 -30
19 -55 32 -55 29 0 -3 -12 4 -26 15 -15 12 -32 21 -40 21 -7 0 -14 4 -16 8 -5
12 -114 72 -121 67 -4 -3 -5 -2 -2 2 3 3 -7 14 -22 22 l-27 17 0 2072 c-1
1140 1 2072 4 2072 3 0 23 -32 45 -70z m2007 -75 c46 -80 94 -165 107 -188 13
-23 29 -45 35 -49 6 -5 7 -8 1 -8 -5 0 -2 -7 8 -14 10 -8 18 -18 18 -23 0 -15
43 -93 51 -93 5 0 7 -4 3 -9 -3 -6 1 -13 9 -18 8 -4 15 -12 16 -18 1 -11 70
-137 79 -145 3 -3 7 -12 9 -20 2 -8 8 -16 13 -18 5 -2 9 -10 9 -17 0 -8 6 -20
13 -27 6 -7 23 -35 37 -61 13 -26 28 -47 33 -47 4 0 6 -4 2 -9 -3 -5 -1 -12 4
-15 5 -4 22 -31 37 -61 15 -30 32 -51 37 -48 6 3 7 2 4 -4 -3 -5 19 -51 49
-102 30 -51 54 -98 54 -103 0 -5 6 -6 13 -2 6 4 9 3 5 -1 -8 -8 37 -94 54
-106 6 -3 10 -10 10 -15 1 -17 21 -54 30 -54 4 0 7 -3 6 -7 -3 -14 25 -63 35
-63 6 0 7 -3 4 -6 -4 -4 2 -19 13 -34 11 -16 20 -32 20 -37 0 -5 8 -18 18 -29
9 -10 26 -38 36 -61 10 -23 23 -40 29 -36 6 3 7 1 3 -5 -3 -6 1 -17 9 -26 9
-8 15 -17 14 -18 -3 -8 25 -58 33 -58 4 0 7 -3 6 -7 -3 -11 78 -154 84 -148 2
3 5 -1 5 -7 1 -20 59 -119 66 -113 4 3 5 2 2 -2 -6 -7 43 -94 59 -105 6 -4 7
-8 3 -8 -5 0 0 -12 10 -27 10 -16 28 -45 38 -65 11 -21 23 -38 27 -38 5 0 7
-3 7 -7 -3 -21 2 -33 13 -27 6 4 8 3 4 -4 -3 -6 2 -18 11 -28 10 -10 17 -20
17 -23 -3 -13 20 -50 27 -45 5 3 6 -3 2 -12 -4 -10 -2 -15 4 -11 5 3 10 1 10
-6 0 -15 124 -231 135 -235 4 -2 8 -10 8 -17 0 -8 7 -21 16 -29 8 -9 13 -16 9
-16 -3 0 2 -12 12 -27 11 -16 30 -49 44 -75 13 -27 27 -48 30 -48 4 0 10 -11
13 -25 4 -14 11 -23 16 -20 6 4 7 -1 3 -11 -5 -13 -3 -15 7 -9 8 5 11 4 7 -2
-4 -6 2 -22 14 -36 11 -15 20 -30 20 -34 1 -13 82 -147 93 -155 7 -5 7 -8 1
-8 -7 0 -7 -3 0 -8 6 -4 23 -31 39 -61 15 -30 40 -73 54 -95 15 -23 27 -43 27
-46 4 -19 29 -59 35 -55 4 2 7 -1 7 -8 0 -22 70 -137 78 -129 4 4 5 1 0 -7 -5
-9 -2 -19 10 -28 11 -7 16 -13 13 -13 -4 0 29 -61 73 -136 43 -75 79 -140 79
-145 0 -5 3 -9 8 -9 4 0 13 -15 21 -32 8 -18 17 -35 21 -38 3 -3 19 -31 35
-62 16 -31 34 -54 39 -51 5 3 7 2 3 -3 -6 -11 57 -127 65 -119 2 3 5 -1 5 -8
0 -7 28 -61 63 -120 34 -60 61 -110 58 -112 -2 -2 -43 18 -91 45 -47 28 -91
50 -97 50 -5 0 -10 5 -10 11 0 5 -4 7 -10 4 -5 -3 -10 -2 -10 4 0 10 -90 57
-103 53 -5 -1 -6 2 -3 7 6 9 -52 38 -67 33 -5 -1 -6 1 -3 6 5 8 -25 27 -47 30
-4 1 -17 11 -29 21 -11 11 -25 18 -30 15 -4 -3 -8 0 -8 5 0 6 -5 11 -11 11 -6
0 -24 9 -40 21 -16 11 -29 17 -29 12 0 -4 -4 -3 -8 3 -10 14 -223 137 -239
137 -7 0 -10 4 -8 8 5 7 -55 35 -68 31 -5 -1 -6 2 -3 7 7 10 -32 27 -49 22 -5
-1 -7 1 -2 5 7 7 -132 90 -145 86 -5 -1 -8 2 -8 6 0 10 -50 37 -62 34 -5 -1
-8 2 -8 6 0 9 -37 29 -54 30 -5 0 -12 4 -15 10 -7 11 -96 63 -102 59 -2 -1 -3
0 -2 2 6 9 -59 41 -69 35 -6 -4 -8 -3 -5 2 3 6 -3 16 -15 23 -16 10 -19 10
-13 -1 3 -7 -1 -4 -9 6 -9 11 -16 16 -16 10 0 -5 -4 -4 -8 2 -10 15 -364 217
-379 217 -7 0 -11 3 -8 5 8 8 -178 111 -189 105 -5 -4 -6 -1 -2 5 4 7 -3 14
-19 18 -14 3 -25 10 -25 15 0 5 -4 9 -9 9 -7 0 -64 31 -111 60 -47 30 -141 81
-146 80 -4 -1 -10 2 -13 7 -9 13 -124 78 -133 75 -5 -1 -8 1 -8 6 0 4 -16 16
-35 26 -30 16 -35 25 -36 55 -5 231 -2 2981 3 2981 4 0 44 -65 90 -145z
m10392 -1367 l1 -1503 -30 -16 c-122 -67 -330 -191 -335 -200 -4 -6 -11 -10
-16 -10 -22 2 -44 -11 -38 -22 4 -7 3 -9 -1 -5 -8 8 -94 -37 -106 -54 -3 -6
-8 -8 -10 -7 -5 4 -122 -62 -130 -74 -3 -5 -10 -9 -15 -9 -22 -1 -53 -22 -47
-31 4 -6 1 -7 -7 -2 -8 5 -17 2 -24 -7 -11 -15 -17 -18 -37 -18 -5 0 -7 -6 -3
-12 4 -7 3 -10 -1 -6 -9 8 -94 -37 -107 -56 -4 -6 -8 -8 -8 -3 0 4 -18 -4 -40
-18 -22 -14 -44 -25 -50 -25 -5 0 -10 -4 -10 -10 0 -5 -7 -10 -15 -10 -8 0
-15 -4 -15 -10 0 -5 -3 -9 -7 -8 -13 4 -73 -32 -73 -43 0 -6 -4 -8 -9 -4 -5 3
-17 -2 -25 -11 -9 -8 -16 -12 -16 -9 0 4 -12 0 -26 -10 -30 -19 -234 -138
-255 -148 -8 -4 -36 -21 -64 -37 -27 -17 -60 -36 -72 -42 -13 -6 -23 -15 -23
-20 0 -5 -4 -7 -9 -4 -5 4 -23 -6 -40 -20 -17 -14 -31 -23 -31 -20 0 7 -223
-125 -231 -136 -3 -6 -9 -9 -13 -7 -12 3 -86 -41 -86 -52 0 -6 -3 -8 -8 -5 -4
2 -30 -9 -57 -24 -28 -16 -65 -37 -82 -46 -18 -9 -33 -20 -33 -25 0 -5 -3 -8
-7 -7 -12 3 -93 -41 -93 -51 0 -4 -6 -8 -13 -8 -6 0 -31 -12 -54 -26 -24 -15
-47 -27 -53 -27 -5 0 -10 -4 -10 -10 0 -5 -7 -10 -15 -10 -8 0 -15 -5 -15 -12
0 -6 -3 -9 -6 -6 -3 3 -35 -11 -72 -33 -36 -21 -68 -37 -70 -34 -3 2 3 16 12
30 9 14 14 25 11 25 -3 0 3 10 14 22 11 11 18 25 15 30 -3 4 -1 8 3 8 5 0 17
17 28 38 11 20 30 54 42 75 13 20 21 37 18 37 -3 0 3 10 14 22 11 11 18 25 15
30 -3 4 0 8 5 8 6 0 11 6 11 14 0 8 3 16 8 18 11 4 115 190 115 206 0 6 3 10
5 7 6 -5 102 159 102 174 0 5 4 11 8 13 9 3 132 216 135 232 1 6 9 18 18 28 9
10 25 36 35 58 10 22 23 40 28 40 4 0 5 7 2 16 -3 8 -2 13 2 10 9 -5 47 63 44
77 -1 4 3 7 8 7 6 0 10 7 10 15 0 8 4 15 9 15 5 0 11 6 13 13 3 12 119 216
150 265 10 15 21 34 25 42 3 8 17 32 30 53 13 20 20 37 16 37 -5 0 -3 4 2 8
19 13 65 99 57 107 -4 5 -1 5 6 1 6 -4 12 -3 12 3 0 5 16 36 34 67 19 32 32
62 29 68 -3 6 -2 8 2 3 5 -4 20 14 35 40 52 93 72 128 82 141 6 6 7 12 2 12
-5 0 -4 4 1 8 13 9 85 130 85 142 0 5 6 15 13 22 18 19 132 222 129 231 -1 4
2 7 8 7 5 0 10 6 10 14 0 8 4 16 8 18 9 4 102 167 102 179 0 5 4 9 8 9 5 0 14
16 22 35 8 19 17 35 20 35 7 0 37 59 38 74 0 5 4 12 9 15 11 8 76 116 76 128
1 4 9 17 19 27 10 11 18 23 18 28 0 19 2 23 16 31 8 4 14 12 14 17 0 5 18 39
39 74 22 35 37 67 34 70 -4 3 -1 6 6 6 7 0 9 5 6 10 -3 6 -2 10 3 10 10 0 58
81 54 93 -1 4 3 7 10 7 6 0 9 3 5 6 -3 3 3 16 14 27 11 12 17 27 14 35 -2 7
-1 10 4 7 10 -6 27 33 22 50 -1 6 1 6 5 2 8 -7 28 24 56 86 7 15 16 27 20 27
4 0 8 4 8 10 0 5 18 39 40 75 22 36 36 65 32 65 -4 0 -2 4 4 8 12 8 73 113 72
126 0 5 5 12 10 15 13 9 285 483 285 498 0 7 3 10 7 8 4 -2 14 12 24 32 9 19
20 33 23 29 3 -3 7 -682 7 -1508z m1960 -561 c1 -1918 0 -2063 -16 -2077 -31
-28 -47 -40 -53 -40 -10 0 -149 -83 -156 -93 -3 -5 -10 -9 -15 -9 -19 -1 -54
-22 -54 -31 0 -6 -3 -7 -7 -4 -3 4 -17 -3 -30 -15 -13 -12 -23 -18 -23 -15 0
4 -18 -4 -40 -18 -22 -14 -44 -25 -49 -25 -6 0 -15 -8 -20 -17 -6 -10 -11 -15
-11 -11 0 8 -382 -211 -391 -224 -3 -5 -8 -8 -10 -7 -6 5 -123 -63 -131 -75
-4 -6 -8 -7 -8 -2 0 5 -8 3 -17 -6 -10 -8 -39 -25 -65 -38 -26 -13 -44 -28
-41 -34 3 -5 1 -6 -5 -2 -6 3 -18 -2 -28 -11 -10 -10 -18 -16 -18 -14 -1 3
-33 -13 -73 -34 -39 -22 -69 -43 -67 -47 3 -4 -1 -5 -8 -3 -8 3 -23 -3 -35
-14 -11 -11 -24 -17 -27 -14 -3 4 -6 1 -6 -5 0 -7 -3 -11 -7 -10 -5 2 -51 -23
-103 -53 -52 -31 -112 -65 -132 -76 -21 -11 -34 -23 -30 -27 4 -4 3 -6 -3 -5
-17 5 -56 -12 -49 -22 3 -5 2 -8 -3 -7 -14 4 -53 -13 -53 -23 0 -5 -3 -8 -7
-7 -17 4 -62 -26 -56 -36 3 -6 3 -8 -2 -4 -7 7 -91 -35 -145 -72 -14 -10 -35
-21 -48 -24 -12 -4 -20 -11 -18 -15 3 -4 0 -8 -7 -8 -18 0 -237 -129 -232
-137 3 -3 2 -4 -2 -1 -7 6 -114 -54 -125 -69 -4 -6 -8 -8 -8 -4 0 4 -60 -29
-134 -72 -73 -43 -153 -89 -177 -103 -24 -13 -127 -73 -229 -132 -102 -59
-210 -121 -240 -138 -30 -17 -61 -38 -68 -46 -11 -13 -12 -13 -6 -1 7 13 6 13
-12 0 -10 -8 -22 -19 -26 -25 -4 -5 -8 -6 -8 -2 0 5 -12 0 -27 -11 -16 -10
-48 -29 -73 -41 -25 -12 -49 -28 -55 -35 -10 -13 -14 -15 -47 -24 -10 -2 -18
-8 -18 -12 0 -4 -9 -10 -20 -13 -24 -6 -25 -3 -4 28 9 14 13 25 9 25 -4 0 5
14 19 31 24 29 30 43 27 62 -1 5 3 6 9 2 5 -3 10 -2 10 3 0 5 24 52 54 103 30
51 52 98 49 103 -4 6 -3 8 2 4 11 -10 47 50 39 64 -4 7 -2 8 4 4 7 -4 12 -1
12 8 0 9 4 16 8 16 8 0 49 77 50 94 0 5 4 12 9 15 17 12 62 98 55 106 -4 5 -1
5 6 1 11 -6 17 5 13 27 0 4 4 7 9 7 6 0 10 7 10 15 0 8 4 15 9 15 5 0 11 8 15
18 3 9 15 32 26 50 11 17 16 32 12 32 -4 0 1 5 11 11 9 5 17 14 17 18 0 5 30
60 66 122 37 63 67 119 67 126 0 7 3 10 7 8 9 -6 34 46 31 64 -1 7 2 11 7 7 5
-3 15 10 22 29 8 19 17 35 20 35 4 0 17 23 30 50 13 28 27 50 32 50 4 0 8 5 8
11 0 5 24 51 54 102 30 51 63 108 74 127 11 19 46 80 77 135 32 55 58 105 58
112 0 7 4 10 8 7 8 -4 25 35 21 49 -1 5 2 6 8 2 9 -6 14 7 11 28 0 4 2 7 7 7
4 0 16 17 27 38 11 20 26 43 32 50 7 7 13 18 13 23 0 6 11 26 25 46 13 20 22
40 19 45 -3 4 -1 8 5 8 11 0 57 80 53 93 -1 4 2 7 7 7 10 0 27 39 23 53 -1 5
1 6 6 3 9 -5 37 42 34 57 -1 4 3 7 9 7 5 0 7 5 4 10 -3 6 0 13 8 16 8 3 17 14
20 25 8 29 9 33 29 53 9 10 15 23 12 28 -3 4 0 8 5 8 6 0 11 7 11 15 0 8 4 15
8 15 5 0 14 12 21 27 7 14 31 58 54 97 23 39 40 77 39 85 -2 7 1 10 7 6 10 -5
13 1 10 21 0 4 4 10 9 13 14 8 85 132 85 148 0 6 4 10 9 7 4 -3 8 0 8 5 0 22
2 26 16 34 8 4 14 12 14 18 0 5 12 28 27 52 14 23 26 48 26 54 0 7 3 13 7 13
3 0 14 14 23 30 10 17 15 30 12 30 -3 0 2 9 12 19 10 11 27 37 38 58 11 21 35
63 54 93 19 30 34 60 34 67 0 7 3 13 7 13 3 0 14 14 23 30 10 17 15 30 11 30
-4 0 1 7 12 15 10 8 15 15 9 15 -6 0 -6 3 1 8 14 9 79 125 76 135 -1 4 2 7 7
7 10 0 27 39 23 53 -1 5 1 6 6 3 7 -4 32 36 42 69 2 6 10 16 17 23 7 8 10 18
7 24 -4 7 -2 8 4 4 11 -6 14 0 11 20 0 4 3 10 9 13 17 12 62 98 54 106 -4 4
-2 5 4 2 10 -6 50 59 46 76 -1 4 2 7 7 7 5 0 20 21 34 48 52 99 62 117 68 122
17 15 68 118 61 125 -4 5 -1 5 6 1 6 -4 12 -3 12 1 0 5 24 50 54 100 30 51 51
94 48 97 -3 3 0 6 6 6 6 0 14 10 18 22 3 12 11 26 16 32 21 26 76 126 65 120
-7 -3 -5 0 4 8 18 16 125 200 121 211 -1 4 2 7 7 7 10 0 27 39 23 53 -1 5 1 6
6 4 4 -3 21 20 37 51 17 31 33 59 36 62 9 7 40 69 38 76 0 4 3 10 9 13 13 9
135 223 135 238 0 7 3 11 5 8 6 -6 158 257 154 268 -1 4 2 7 6 7 8 0 36 51 32
59 -1 2 2 7 7 10 12 8 73 109 73 120 0 5 7 14 15 21 8 7 13 16 10 20 -3 5 -1
10 3 12 9 3 70 108 71 121 0 4 7 15 16 23 8 9 15 22 15 30 0 8 4 14 9 14 5 0
13 9 16 21 4 11 9 18 13 15 3 -3 6 -934 6 -2069z m-3421 -234 c-4 -10 -19 -40
-35 -66 -15 -26 -28 -52 -28 -57 0 -6 -3 -10 -8 -10 -9 0 -38 -61 -34 -73 1
-5 -2 -6 -7 -3 -5 3 -15 -9 -22 -27 -7 -17 -16 -34 -20 -37 -14 -11 -38 -68
-31 -75 4 -5 2 -5 -4 -2 -10 5 -41 -44 -42 -67 0 -5 -7 -13 -16 -18 -9 -5 -16
-13 -16 -18 0 -4 -22 -46 -50 -93 -27 -47 -50 -90 -50 -96 0 -6 -4 -11 -10
-11 -5 0 -10 -5 -10 -10 0 -6 -16 -36 -35 -66 -19 -30 -35 -57 -35 -59 0 -3
-11 -23 -25 -45 -14 -21 -26 -45 -27 -51 -2 -7 -11 -21 -20 -31 -10 -10 -18
-25 -18 -33 0 -8 -5 -15 -11 -15 -6 0 -9 -6 -6 -14 3 -8 0 -16 -7 -19 -15 -6
-78 -121 -71 -131 3 -3 2 -4 -1 -1 -7 4 -68 -97 -198 -327 -12 -20 -56 -97
-99 -172 -43 -74 -77 -137 -75 -138 1 -2 -7 -13 -17 -26 -11 -12 -18 -25 -17
-29 2 -3 0 -9 -5 -12 -12 -8 -133 -218 -133 -231 0 -5 -3 -10 -8 -10 -4 0 -12
-10 -17 -22 l-10 -23 -1229 -1 -1229 -1 27 22 c16 13 47 33 70 45 95 51 136
77 131 83 -3 4 -2 5 1 2 4 -2 30 8 58 24 133 74 151 85 158 95 3 5 13 11 21
12 7 1 32 14 55 28 23 14 46 26 52 26 5 0 10 5 10 10 0 6 5 10 11 10 13 0 131
71 141 85 4 5 8 7 8 3 0 -8 363 202 372 216 4 6 8 8 8 4 0 -8 318 174 343 196
9 9 17 14 17 11 0 -8 94 47 98 57 2 5 7 6 12 3 4 -3 13 2 20 10 7 8 16 15 20
15 4 0 86 45 181 101 96 56 192 111 214 124 22 12 58 33 80 45 22 13 60 35 85
49 25 14 47 29 48 33 2 4 8 8 13 8 5 0 65 33 134 73 68 39 137 79 152 87 27
15 319 183 453 261 36 21 72 44 80 51 8 7 15 11 15 9 0 -4 52 25 185 103 25
15 53 29 63 33 9 3 17 9 17 14 0 5 4 9 10 9 8 0 137 71 180 100 8 6 24 14 35
19 11 6 38 21 60 35 48 31 46 30 38 9z m-7515 -16 c20 -13 44 -27 52 -30 8 -4
33 -19 55 -33 22 -14 52 -30 68 -37 15 -6 27 -15 27 -19 0 -4 4 -8 9 -8 6 0
38 -17 73 -37 35 -21 66 -36 71 -35 4 1 7 -1 7 -5 0 -5 26 -21 58 -38 31 -16
59 -33 62 -36 3 -3 30 -19 60 -35 30 -16 58 -33 61 -38 4 -5 13 -5 20 -1 8 5
11 5 7 0 -8 -9 8 -20 117 -80 39 -21 79 -44 91 -52 11 -7 24 -11 27 -8 4 3 5
2 2 -1 -5 -8 234 -147 252 -147 7 0 11 -3 8 -6 -5 -4 34 -28 157 -95 27 -15
50 -26 53 -26 3 0 14 -9 25 -20 12 -12 25 -18 30 -15 4 3 10 2 12 -3 4 -10
213 -132 226 -132 6 0 12 -4 14 -8 4 -10 286 -172 299 -172 5 0 9 -4 9 -9 0
-5 8 -11 18 -15 9 -3 31 -13 47 -23 96 -57 220 -127 220 -123 0 2 9 -4 20 -13
11 -9 24 -17 29 -16 5 0 12 -3 15 -8 9 -14 333 -198 342 -195 5 1 9 -2 9 -8 0
-5 7 -10 15 -10 8 0 15 -4 15 -8 0 -9 37 -29 54 -30 5 0 12 -4 15 -9 10 -14
98 -63 105 -58 3 3 4 2 1 -1 -6 -9 78 -53 89 -46 5 3 6 1 3 -5 -3 -5 14 -20
38 -32 25 -12 47 -26 50 -32 4 -5 11 -7 16 -4 5 4 9 1 9 -4 0 -6 4 -11 9 -11
5 0 58 -29 119 -65 60 -36 114 -65 120 -65 6 0 12 -4 14 -8 6 -15 135 -82 143
-74 5 4 6 2 2 -4 -3 -5 11 -19 31 -29 65 -34 122 -70 122 -76 0 -3 -550 -5
-1223 -5 -1131 1 -1225 2 -1240 18 -9 9 -17 20 -17 24 0 11 -163 289 -174 296
-6 4 -8 8 -4 8 3 0 -32 66 -79 148 -47 81 -97 168 -111 194 -15 26 -30 44 -36
41 -5 -3 -6 -1 -2 5 4 6 -9 36 -29 67 -19 30 -35 57 -35 60 0 2 -27 50 -60
105 -33 55 -60 105 -60 110 0 6 -4 10 -10 10 -5 0 -10 5 -10 11 0 6 -15 37
-34 68 -19 31 -46 79 -62 106 -15 28 -30 52 -33 55 -3 3 -15 23 -26 45 -11 22
-22 42 -25 45 -3 3 -11 16 -19 30 -8 14 -27 48 -43 75 -15 28 -45 80 -65 117
-20 37 -40 65 -45 62 -4 -3 -5 2 -2 10 3 9 1 16 -5 16 -6 0 -11 7 -11 15 0 8
-5 15 -12 15 -6 0 -8 3 -5 7 4 3 -1 18 -10 32 -9 14 -41 69 -71 121 -30 52
-59 98 -64 101 -6 3 -10 10 -10 15 -1 19 -22 54 -31 54 -6 0 -7 3 -4 7 4 3 2
12 -4 20 -18 21 6 16 49 -10z m-1508 -809 c0 -5 4 -7 9 -4 5 4 11 2 13 -2 1
-4 84 -55 183 -111 99 -57 197 -114 218 -128 21 -13 43 -21 50 -17 7 4 9 4 5
-1 -7 -8 162 -113 171 -106 2 1 7 -1 10 -6 12 -17 98 -62 106 -55 5 4 5 1 1
-5 -4 -7 -3 -13 3 -13 11 0 150 -78 173 -98 9 -8 22 -11 29 -6 8 4 10 3 5 -4
-4 -7 -3 -12 2 -12 6 0 51 -25 102 -55 51 -30 98 -52 104 -48 6 3 8 3 4 -2 -8
-9 98 -78 120 -78 6 0 12 -4 12 -8 0 -9 40 -24 53 -21 5 1 6 -2 3 -7 -6 -9 52
-38 67 -33 5 1 6 -1 3 -6 -3 -5 7 -15 22 -23 15 -7 44 -24 64 -36 20 -13 43
-24 50 -25 7 -2 20 -10 30 -18 9 -8 43 -28 75 -45 32 -16 60 -33 63 -36 12
-14 68 -38 75 -31 5 4 5 2 1 -5 -4 -7 7 -16 29 -24 19 -7 35 -16 35 -19 0 -3
21 -17 48 -30 26 -14 49 -28 50 -32 2 -5 8 -8 13 -8 5 0 54 -27 110 -60 55
-33 102 -60 104 -60 1 0 44 -25 94 -55 51 -31 97 -52 103 -49 6 4 8 3 5 -3 -6
-9 50 -44 67 -42 5 0 12 -3 15 -9 8 -11 178 -112 190 -112 5 0 11 -3 13 -7 6
-15 85 -53 93 -45 5 4 6 2 3 -3 -5 -9 65 -52 311 -191 31 -18 60 -29 65 -26 5
3 6 0 2 -6 -4 -7 -3 -12 1 -12 5 0 35 -15 66 -34 31 -19 57 -31 57 -28 0 4 4
2 8 -3 6 -10 32 -26 132 -83 19 -10 137 -78 262 -151 125 -72 232 -131 238
-131 5 0 10 -4 10 -8 0 -4 26 -21 58 -37 31 -17 59 -32 62 -36 15 -16 138 -77
145 -71 5 4 5 1 1 -5 -4 -7 -3 -13 1 -13 5 0 35 -15 66 -34 31 -19 57 -31 57
-28 0 4 4 2 8 -4 4 -6 27 -22 52 -36 64 -36 120 -68 155 -89 74 -44 175 -99
181 -98 4 0 10 -4 13 -9 11 -17 98 -62 106 -54 5 4 5 2 2 -4 -6 -10 59 -50 76
-46 4 1 7 -3 7 -8 0 -6 7 -10 15 -10 8 0 15 -5 15 -11 0 -5 5 -7 10 -4 6 3 10
3 10 -2 0 -4 26 -21 57 -38 32 -16 62 -33 68 -38 5 -4 21 -15 34 -26 24 -18
-20 -18 -1710 -18 -1685 -1 -1735 0 -1752 18 -10 11 -14 19 -10 19 4 0 1 6 -7
13 -8 7 -16 17 -17 23 -3 16 -106 188 -115 192 -5 2 -6 8 -3 12 3 5 -3 18 -15
30 -11 11 -20 23 -20 28 -1 14 -117 212 -122 207 -2 -3 -5 1 -5 8 0 18 -139
257 -147 252 -3 -3 -4 -2 -1 2 3 3 -1 16 -8 27 -8 12 -31 53 -52 91 -21 39
-46 81 -55 95 -9 14 -20 32 -23 40 -4 8 -11 22 -17 30 -8 13 -30 51 -90 155
-9 17 -51 89 -92 160 -41 72 -128 222 -193 335 -65 113 -122 208 -127 211 -6
3 -9 10 -9 15 1 5 -4 16 -11 25 -7 8 -14 22 -16 29 -2 7 -11 25 -21 39 -10 14
-33 53 -51 86 -76 137 -87 155 -92 150 -2 -3 -5 1 -5 8 0 20 -100 187 -107
179 -4 -4 -6 -2 -4 4 2 8 -88 177 -163 302 -28 47 -61 105 -96 169 -30 55 -31
61 -13 56 11 -3 20 -10 20 -15z m10518 10 c-2 -7 -6 -15 -9 -18 -5 -4 -30 -46
-116 -198 -13 -23 -53 -92 -88 -152 -35 -61 -61 -110 -59 -110 3 0 -4 -10 -16
-22 -18 -20 -21 -27 -19 -44 0 -4 -3 -10 -8 -13 -13 -8 -123 -197 -123 -210 0
-6 -4 -11 -8 -11 -4 0 -18 -19 -30 -42 -26 -51 -52 -96 -75 -132 -10 -14 -14
-26 -10 -26 5 0 3 -4 -3 -8 -11 -8 -223 -372 -223 -385 0 -4 -7 -15 -16 -23
-8 -9 -15 -21 -15 -29 0 -7 -4 -15 -8 -17 -11 -4 -105 -170 -105 -185 0 -7 -3
-11 -5 -8 -8 8 -71 -108 -65 -119 4 -5 2 -6 -4 -3 -6 4 -15 -6 -22 -20 -7 -15
-29 -56 -51 -92 -21 -36 -38 -69 -39 -74 0 -4 -10 -17 -21 -29 -11 -12 -18
-28 -16 -35 3 -7 2 -13 -3 -13 -7 0 -166 -267 -241 -403 -8 -15 -48 -84 -87
-153 -40 -69 -73 -127 -73 -130 0 -3 -5 -10 -10 -17 -6 -7 -46 -73 -88 -147
l-78 -135 -1738 -1 c-1395 -1 -1735 2 -1724 12 7 7 29 21 48 32 99 56 286 166
290 171 3 3 11 7 19 9 8 2 26 11 40 21 25 17 159 95 356 206 28 15 53 33 57
39 4 6 8 8 8 4 0 -4 41 18 92 48 51 30 96 54 101 54 4 0 6 4 3 8 -3 5 0 9 7 9
14 0 869 492 878 505 3 6 9 9 13 9 7 -2 69 29 76 38 3 3 19 13 35 21 17 8 32
17 35 20 3 3 28 17 55 32 151 81 324 186 317 193 -4 5 -2 6 4 2 5 -3 52 19
103 49 51 30 97 54 102 54 5 0 9 4 9 8 0 4 12 13 28 19 39 17 116 64 123 75 3
5 9 9 13 9 14 -3 145 76 139 83 -5 4 -3 6 2 4 14 -4 75 23 75 33 0 5 4 9 9 9
6 0 60 29 122 65 61 36 115 65 119 65 4 0 15 9 25 20 10 11 20 18 22 16 3 -2
50 22 105 55 55 32 104 59 109 59 5 0 9 4 9 9 0 5 10 13 22 17 12 3 58 28 102
54 45 26 97 57 116 68 133 75 186 107 191 115 3 5 9 8 13 8 10 -2 70 31 78 43
4 6 11 11 16 11 14 0 102 50 102 57 0 5 4 8 10 8 15 0 180 97 175 102 -3 3 1
5 8 5 15 0 299 162 309 177 4 6 8 7 8 2 0 -5 8 -2 18 6 9 9 22 17 27 19 35 13
355 203 355 211 0 5 3 7 8 4 4 -2 25 7 47 20 47 28 46 28 43 12z m-12503
-1128 c28 -16 56 -26 60 -22 5 4 5 1 1 -5 -4 -7 -3 -13 1 -13 5 0 35 -15 66
-34 30 -19 58 -31 61 -28 3 3 6 1 6 -5 0 -8 38 -32 60 -38 3 -1 28 -15 55 -33
28 -18 54 -32 59 -31 5 0 12 -4 15 -9 7 -10 67 -43 77 -41 4 0 10 -3 13 -9 12
-17 98 -62 106 -54 4 4 6 2 2 -3 -3 -6 15 -22 41 -35 26 -13 55 -30 65 -38 9
-9 17 -11 17 -6 0 5 4 4 8 -1 13 -19 99 -65 107 -57 5 4 5 1 1 -5 -4 -7 -3
-13 3 -13 5 0 43 -20 85 -45 42 -24 76 -41 76 -37 0 4 4 2 8 -4 12 -17 110
-73 116 -67 3 4 6 2 6 -3 0 -5 17 -18 38 -29 20 -10 44 -24 52 -31 8 -6 35
-22 60 -35 25 -13 52 -29 60 -35 8 -7 22 -14 30 -16 8 -2 17 -6 20 -9 6 -7
268 -159 274 -159 3 0 22 -11 42 -25 20 -14 41 -22 47 -18 5 3 7 2 4 -4 -5 -8
61 -49 71 -44 1 1 10 -5 18 -14 9 -8 20 -12 26 -9 7 4 8 2 4 -4 -6 -11 6 -16
27 -13 4 0 7 -3 7 -7 0 -8 54 -38 56 -30 0 1 8 -5 18 -15 10 -9 22 -14 28 -11
6 4 8 3 5 -2 -3 -6 15 -21 41 -34 26 -13 55 -30 65 -38 9 -9 17 -11 17 -6 0 5
4 4 8 -2 8 -12 114 -74 122 -71 3 1 16 -8 29 -20 13 -12 28 -20 33 -17 4 3 8
1 8 -5 0 -10 39 -27 53 -23 5 1 6 -2 3 -7 -3 -5 2 -12 11 -16 10 -3 115 -62
235 -131 119 -69 219 -124 221 -122 2 2 11 -5 21 -15 10 -9 22 -14 28 -11 6 4
8 2 5 -3 -7 -11 51 -40 68 -35 6 2 7 0 3 -4 -11 -10 51 -46 64 -38 6 4 8 3 5
-3 -5 -9 41 -38 52 -33 2 1 7 -2 10 -7 9 -13 125 -78 134 -75 4 1 10 -5 13
-13 4 -8 10 -15 14 -15 5 0 53 -25 107 -57 54 -31 103 -56 110 -56 7 0 10 -3
8 -6 -2 -4 10 -14 26 -24 18 -10 28 -12 24 -4 -4 6 -1 5 7 -4 20 -24 124 -80
133 -72 4 5 5 3 2 -3 -3 -6 17 -22 46 -37 29 -15 78 -43 110 -62 31 -19 57
-31 57 -27 0 4 5 -1 11 -11 6 -9 14 -15 20 -12 5 4 9 2 9 -2 0 -5 24 -21 53
-37 28 -15 81 -45 117 -66 36 -21 69 -35 74 -32 5 3 6 0 3 -5 -4 -6 5 -16 21
-22 15 -6 41 -19 57 -29 134 -79 181 -105 192 -105 7 0 10 -3 8 -7 -5 -8 105
-66 118 -62 5 1 6 -1 3 -6 -3 -5 18 -21 47 -36 29 -15 61 -32 72 -39 11 -7 63
-36 115 -66 52 -30 107 -63 123 -73 15 -11 27 -16 27 -11 0 4 4 3 8 -2 6 -9
62 -44 199 -122 18 -10 115 -65 215 -123 100 -58 188 -106 195 -108 7 -2 13
-8 13 -13 0 -6 5 -7 10 -4 6 3 10 2 10 -3 0 -8 64 -42 76 -41 4 0 10 -4 13 -9
3 -5 33 -24 66 -42 33 -18 68 -40 77 -48 9 -8 22 -11 29 -6 7 4 10 3 6 -3 -5
-8 58 -47 66 -40 1 1 13 -8 26 -20 13 -12 28 -20 33 -17 4 3 8 1 8 -3 0 -5 17
-17 38 -28 20 -10 49 -28 65 -38 15 -10 27 -15 27 -10 0 4 4 3 8 -3 11 -16
131 -84 149 -84 9 0 13 -3 10 -6 -9 -9 76 -53 88 -46 6 3 7 1 2 -3 -7 -9 68
-57 90 -58 7 0 10 -4 7 -8 -2 -4 6 -11 18 -15 13 -3 35 -15 49 -25 14 -10 29
-16 33 -12 3 3 6 1 6 -5 0 -7 7 -12 15 -12 8 0 15 -5 15 -11 0 -5 4 -8 9 -5 5
4 11 2 13 -2 6 -15 115 -72 123 -64 5 4 5 2 2 -4 -3 -6 20 -23 53 -40 33 -16
60 -32 60 -36 0 -5 5 -8 11 -8 6 0 23 -9 39 -20 15 -11 30 -17 34 -13 3 3 6 1
6 -5 0 -7 7 -12 15 -12 8 0 15 -4 15 -10 0 -5 4 -10 9 -10 20 0 195 -110 176
-111 -115 -4 -4852 -2 -4849 2 4 8 -86 162 -98 167 -5 2 -6 8 -2 13 3 5 0 9
-5 9 -6 0 -10 3 -9 7 3 16 -25 62 -35 56 -6 -3 -8 -2 -4 3 7 12 -58 126 -67
117 -4 -4 -4 1 0 11 5 12 4 17 -3 13 -5 -3 -10 -1 -10 6 0 7 -33 68 -73 137
-40 69 -84 145 -98 170 -14 25 -45 78 -69 118 -24 41 -43 78 -43 83 0 6 -5 7
-10 4 -6 -4 -9 -2 -8 2 4 13 -73 153 -84 153 -4 0 -7 3 -6 8 3 11 -35 82 -44
82 -4 0 -8 5 -8 10 0 16 -96 181 -102 175 -2 -3 -5 1 -5 8 0 15 -122 229 -135
238 -6 3 -10 10 -10 15 -1 17 -21 54 -30 54 -4 0 -7 3 -6 8 3 9 -62 124 -75
133 -5 3 -8 10 -8 15 1 5 -5 16 -12 24 -7 8 -13 17 -14 20 -5 22 -38 78 -43
75 -4 -2 -7 1 -7 8 -1 23 -70 137 -78 130 -4 -5 -5 -3 -2 4 4 6 1 17 -6 25 -7
7 -13 15 -13 18 0 11 -111 200 -116 195 -2 -3 -5 1 -5 8 0 7 -26 57 -58 112
-90 155 -96 166 -128 225 -16 30 -35 62 -41 70 -7 8 -21 32 -31 53 -11 20 -23
37 -27 37 -5 0 -7 3 -6 8 4 11 -108 203 -115 197 -4 -3 -5 -2 -2 1 2 4 -9 30
-24 58 -87 154 -118 205 -124 201 -4 -3 -5 -2 -2 1 5 8 -36 87 -47 92 -5 2 -8
8 -8 13 0 5 -18 39 -40 75 -22 36 -40 68 -40 70 0 2 -14 27 -31 56 -41 69 -69
117 -84 145 -7 13 -14 21 -17 18 -2 -3 -5 1 -5 8 -1 15 -58 118 -64 115 -2 -2
-3 -1 -2 1 5 8 -28 61 -38 61 -6 0 -7 5 -3 12 4 6 -1 17 -10 24 -10 7 -17 15
-17 18 3 21 -1 26 -11 20 -7 -4 -10 -3 -5 1 4 5 1 18 -6 29 -34 53 -88 156
-82 156 4 0 31 -13 60 -30z m14499 -2 c-9 -18 -28 -50 -41 -70 -13 -21 -21
-38 -18 -38 3 0 1 -6 -5 -12 -18 -22 -54 -81 -75 -123 -11 -22 -23 -42 -26
-45 -14 -12 -38 -68 -31 -75 4 -5 1 -5 -5 -1 -8 4 -13 1 -13 -8 0 -9 -4 -16
-9 -16 -8 0 -17 -21 -19 -44 0 -5 -4 -12 -10 -15 -12 -8 -122 -196 -122 -210
0 -6 -4 -11 -10 -11 -5 0 -10 -4 -10 -9 0 -5 -27 -55 -60 -110 -32 -56 -57
-101 -54 -101 3 0 -2 -7 -10 -16 -9 -8 -13 -20 -10 -26 4 -7 2 -8 -4 -4 -11 6
-16 -6 -13 -26 0 -5 -2 -8 -7 -8 -4 0 -19 -21 -32 -47 -14 -27 -28 -50 -31
-53 -7 -5 -33 -52 -34 -60 0 -3 -13 -25 -29 -50 -15 -25 -35 -55 -42 -67 -8
-13 -11 -23 -7 -23 5 0 3 -4 -3 -8 -6 -4 -29 -38 -51 -77 -22 -38 -54 -94 -71
-122 -17 -29 -28 -53 -24 -53 4 0 2 -4 -4 -8 -15 -10 -85 -132 -76 -132 4 0 2
-4 -4 -8 -17 -12 -73 -110 -67 -116 4 -3 1 -6 -6 -6 -7 0 -9 -4 -6 -10 3 -5 2
-10 -2 -10 -10 0 -86 -130 -86 -147 0 -7 -4 -10 -9 -7 -7 5 -10 -3 -7 -23 0
-3 -6 -10 -15 -15 -9 -5 -14 -13 -11 -19 4 -5 2 -9 -4 -9 -10 0 -27 -39 -23
-53 1 -5 -2 -6 -7 -3 -9 6 -38 -52 -33 -67 1 -5 -2 -6 -7 -3 -8 6 -24 -24 -26
-47 0 -4 -5 -11 -11 -15 -15 -9 -44 -68 -39 -76 3 -3 2 -4 -2 -1 -6 5 -126
-198 -123 -210 1 -4 -7 -13 -17 -21 -10 -7 -14 -14 -10 -14 5 0 1 -7 -7 -16
-9 -8 -16 -22 -16 -30 0 -8 -4 -14 -8 -14 -8 0 -39 -57 -40 -74 0 -5 -4 -12
-9 -15 -18 -12 -73 -118 -65 -126 4 -5 2 -5 -4 -2 -10 6 -43 -48 -40 -65 0 -3
-10 -18 -23 -32 -14 -14 -20 -26 -15 -26 5 0 4 -4 -1 -8 -13 -8 -63 -93 -63
-106 0 -5 -4 -12 -9 -15 -10 -6 -41 -59 -114 -188 -12 -21 -25 -43 -30 -49 -5
-6 -6 -14 -2 -17 3 -4 1 -7 -5 -7 -11 0 -28 -38 -24 -53 1 -5 -2 -6 -7 -3 -9
6 -38 -52 -33 -67 1 -5 -2 -6 -8 -2 -5 3 -10 2 -10 -2 0 -5 -33 -66 -74 -136
-41 -70 -72 -127 -69 -127 4 0 -3 -10 -14 -22 -11 -13 -23 -30 -27 -38 -3 -8
-14 -28 -24 -45 -10 -16 -31 -52 -46 -80 -16 -27 -33 -56 -38 -62 -6 -7 -7
-13 -2 -13 5 0 4 -4 -2 -8 -6 -4 -32 -44 -58 -89 -29 -50 -54 -83 -64 -84 -23
-1 -4825 -1 -4837 0 -5 1 40 30 100 65 61 36 117 70 125 78 8 7 17 12 20 12
11 -3 50 20 50 29 0 6 3 8 6 5 4 -5 99 46 129 69 6 4 40 24 77 43 36 19 64 39
61 44 -4 5 -1 6 5 2 6 -3 18 2 28 11 10 10 18 16 18 15 2 -8 56 22 56 30 0 5
4 7 9 3 5 -3 12 -1 16 5 3 6 21 17 38 26 65 31 147 80 142 85 -3 3 1 6 7 6 16
0 230 123 240 137 4 6 8 8 8 4 0 -9 101 51 111 65 3 5 9 8 13 8 15 -2 75 33
70 41 -3 5 -2 7 3 6 14 -4 53 13 53 23 0 5 3 8 8 7 11 -4 392 218 387 226 -3
3 -2 4 2 1 7 -6 94 43 105 59 4 6 8 8 8 3 0 -4 18 4 40 18 22 14 44 25 50 25
5 0 10 5 10 11 0 5 4 8 9 4 6 -3 14 2 19 11 5 9 13 16 18 16 12 -1 117 59 125
71 3 5 8 8 10 7 11 -5 57 24 52 33 -3 6 -1 7 5 3 6 -4 28 4 49 17 56 36 181
108 235 137 26 13 44 28 41 34 -3 5 -2 6 3 3 6 -3 28 5 49 18 22 14 52 30 67
36 16 6 26 14 23 18 -2 4 1 8 8 8 23 1 117 60 110 68 -5 4 -3 6 2 2 12 -6 127
57 120 66 -3 4 -2 5 1 2 8 -6 81 32 109 57 11 9 23 17 28 17 15 0 107 54 107
63 0 5 5 6 10 3 6 -3 10 -1 10 4 0 6 3 10 8 9 7 -2 53 21 62 31 3 3 19 13 35
21 51 25 130 74 137 84 4 6 8 8 8 4 0 -4 34 13 75 37 42 25 80 45 85 45 5 0
13 7 18 16 5 9 12 15 15 15 18 -2 75 34 70 43 -3 6 -3 8 2 4 8 -8 114 48 127
66 4 6 8 7 8 2 0 -5 6 -4 13 2 10 8 192 114 311 182 17 9 66 38 109 64 43 25
83 46 88 46 5 0 9 4 9 9 0 5 11 12 25 15 14 4 24 10 21 15 -3 4 0 8 7 8 10 0
160 81 227 122 67 42 154 91 161 91 5 0 9 5 9 10 0 6 5 10 11 10 6 0 65 32
132 71 67 40 141 83 165 96 23 13 93 53 154 89 61 35 115 64 120 64 5 0 6 6 2
13 -4 6 -4 9 1 5 4 -4 26 3 49 16 22 14 55 33 73 43 17 10 78 45 135 77 57 33
106 64 109 69 3 5 8 7 10 6 5 -4 102 53 110 64 3 5 10 9 15 9 13 -1 118 60
126 72 4 6 8 7 8 3 0 -5 12 0 28 11 15 10 65 40 112 67 47 26 88 52 91 57 3 6
9 9 13 9 7 -2 69 29 76 38 3 3 35 22 72 41 36 19 64 39 61 44 -4 5 -1 6 5 2 6
-3 18 1 26 10 9 8 16 13 16 10 0 -5 30 10 75 38 66 42 80 50 85 51 9 0 85 49
91 58 3 5 10 9 15 9 22 1 73 32 67 41 -3 6 -1 7 4 4 6 -4 27 4 47 18 20 13 36
22 36 19 0 -3 13 4 29 15 16 12 34 21 40 21 6 0 11 5 11 10 0 6 7 10 16 10 9
0 12 5 8 13 -4 6 -4 9 1 5 7 -7 63 17 75 31 7 8 103 60 113 61 4 0 0 -15 -9
-32z m-4669 -280 c4 -3 -7 -12 -24 -19 -16 -7 -27 -17 -25 -21 3 -5 2 -7 -3
-6 -14 4 -53 -13 -49 -21 3 -4 0 -8 -7 -8 -16 0 -350 -192 -359 -207 -4 -6 -8
-8 -8 -3 0 4 -18 -4 -40 -18 -22 -14 -41 -25 -44 -25 -2 0 -45 -25 -95 -55
-51 -30 -96 -55 -102 -55 -6 0 -7 -5 -3 -12 4 -6 3 -8 -3 -5 -6 4 -30 -7 -54
-23 -24 -16 -47 -30 -52 -30 -4 0 -26 -11 -48 -26 -22 -14 -57 -34 -77 -46
-137 -77 -248 -142 -253 -150 -3 -6 -8 -8 -10 -6 -6 4 -329 -183 -348 -202 -8
-8 -17 -14 -20 -13 -14 6 -41 -9 -35 -19 4 -6 3 -9 -2 -6 -11 7 -75 -27 -69
-36 3 -3 2 -4 -1 -2 -9 6 -84 -34 -84 -45 0 -5 -3 -8 -7 -8 -21 3 -33 -2 -27
-13 4 -6 3 -8 -2 -5 -6 3 -39 -12 -74 -34 -36 -21 -73 -42 -82 -45 -10 -4 -18
-11 -18 -16 0 -5 -4 -6 -10 -3 -5 3 -10 1 -10 -6 0 -7 -2 -10 -5 -7 -6 6 -207
-110 -235 -134 -8 -7 -17 -12 -20 -11 -7 2 -114 -59 -121 -70 -3 -5 -10 -9
-15 -9 -13 0 -98 -50 -106 -63 -4 -5 -8 -7 -8 -2 0 4 -11 0 -24 -8 -23 -15
-27 -15 -68 7 -24 13 -62 36 -86 51 -23 15 -48 25 -54 21 -7 -4 -8 -3 -4 4 4
7 1 12 -8 12 -9 0 -16 5 -16 11 0 5 -4 8 -9 5 -5 -4 -11 -2 -13 2 -4 9 -135
83 -144 82 -4 -1 -10 2 -13 7 -8 12 -129 83 -142 83 -5 0 -9 3 -9 8 0 9 -61
38 -73 34 -5 -1 -6 2 -2 8 3 5 2 10 -3 10 -5 0 -61 30 -123 66 -63 37 -119 67
-126 67 -7 0 -10 4 -7 9 5 7 -10 12 -28 9 -5 0 -8 3 -8 7 0 8 -50 36 -58 33
-1 -1 -10 5 -18 14 -9 8 -20 12 -26 9 -6 -4 -8 -3 -5 3 3 5 -18 22 -48 37 -30
15 -57 32 -61 37 -3 5 -10 7 -15 4 -5 -4 -9 -2 -9 3 0 4 -18 18 -39 29 -22 12
-120 67 -218 124 -98 56 -184 102 -191 102 -6 0 -10 2 -7 5 6 6 -286 175 -302
175 -7 0 -10 4 -7 9 5 7 -3 10 -22 7 -4 0 -10 3 -13 9 -12 17 -98 62 -106 54
-4 -4 -6 -2 -2 4 6 10 -49 46 -67 43 -5 0 -12 3 -15 8 -6 8 -107 73 -115 73
-1 0 -40 22 -86 50 -46 27 -88 46 -94 43 -6 -3 -8 -2 -4 2 8 8 -107 78 -129
78 -7 0 -10 4 -7 8 2 4 -5 10 -16 14 -11 4 -18 9 -16 13 5 8 5203 8 5211 0z
m980 -1700 c3 -3 -13 -13 -35 -23 -22 -10 -40 -22 -40 -27 0 -4 -7 -8 -16 -8
-9 0 -12 -5 -8 -11 4 -7 1 -10 -7 -7 -11 4 -99 -42 -134 -69 -5 -4 -28 -17
-50 -28 -22 -11 -50 -28 -62 -39 -13 -11 -23 -17 -23 -14 0 6 -156 -83 -176
-101 -7 -5 -14 -8 -17 -5 -2 2 -10 -2 -17 -11 -7 -8 -19 -15 -27 -15 -8 0 -11
-5 -8 -10 4 -6 3 -9 -2 -8 -13 4 -73 -24 -68 -31 2 -4 -1 -8 -8 -8 -10 0 -165
-87 -377 -211 -19 -11 -57 -33 -85 -47 -27 -15 -55 -32 -60 -38 -6 -7 -16 -13
-23 -15 -7 -1 -31 -13 -52 -27 -22 -14 -44 -25 -50 -25 -6 0 -9 -4 -6 -8 3 -5
0 -9 -7 -9 -7 0 -38 -15 -70 -34 -130 -76 -153 -90 -184 -106 -18 -9 -33 -21
-33 -25 0 -5 -4 -6 -10 -3 -5 3 -10 1 -10 -4 0 -6 -3 -10 -7 -9 -9 3 -105 -52
-114 -65 -3 -5 -8 -7 -10 -6 -6 4 -103 -53 -111 -66 -4 -5 -8 -7 -8 -3 0 10
-122 -62 -138 -81 -10 -11 -11 -12 -6 -2 6 13 -49 -20 -66 -39 -3 -3 -10 -6
-16 -7 -17 -3 -138 -75 -145 -86 -3 -5 -10 -9 -15 -9 -18 -1 -74 -32 -74 -40
0 -5 -4 -6 -10 -3 -5 3 -10 3 -10 -2 0 -4 -27 -21 -60 -37 -32 -17 -56 -34
-53 -39 3 -6 1 -7 -5 -3 -6 3 -18 -1 -26 -10 -9 -8 -16 -13 -16 -10 0 2 -51
-25 -112 -61 -62 -36 -133 -77 -158 -91 -25 -14 -78 -45 -118 -69 -41 -24 -78
-43 -83 -43 -6 0 -7 -6 -3 -12 4 -7 4 -10 -1 -6 -6 6 -110 -45 -125 -61 -3 -4
-35 -22 -72 -41 -36 -19 -64 -39 -61 -44 4 -5 1 -6 -5 -2 -6 3 -17 -1 -26 -9
-8 -9 -18 -15 -21 -15 -7 1 -69 -31 -75 -39 -3 -4 -16 -12 -30 -18 -58 -28
-109 -61 -104 -66 3 -3 -12 -3 -33 -1 -58 5 -63 7 -57 16 5 7 -10 12 -28 9 -5
0 -8 3 -8 7 0 5 -17 17 -37 28 -21 10 -40 22 -43 25 -3 3 -39 24 -80 48 -41
23 -82 46 -90 51 -65 40 -153 90 -160 90 -4 0 -19 9 -34 21 -14 11 -31 17 -37
13 -7 -4 -9 -3 -5 4 6 10 -30 28 -47 24 -5 -1 -6 2 -2 8 3 5 1 10 -5 10 -7 0
-25 9 -41 21 -16 11 -29 17 -29 12 0 -4 -4 -3 -8 3 -11 16 -82 57 -82 47 0 -4
-4 -3 -8 3 -9 15 -133 87 -149 87 -6 0 -10 4 -7 9 3 4 -8 11 -25 14 -17 4 -28
10 -25 15 3 5 1 9 -5 9 -5 0 -43 20 -85 45 -42 24 -76 41 -76 37 0 -4 -5 1
-11 11 -5 9 -14 17 -19 17 -5 0 -43 20 -85 45 -41 24 -75 42 -75 40 0 -3 -9 4
-20 15 -12 12 -25 18 -30 15 -6 -4 -10 -2 -10 3 0 8 -25 23 -55 33 -5 1 -19
11 -30 21 -10 10 -25 16 -33 13 -7 -2 -11 -1 -8 3 2 4 -41 34 -97 65 -165 92
-182 102 -187 107 -3 3 -18 12 -35 20 -16 8 -32 17 -35 20 -5 5 -32 21 -95 55
-22 12 -55 31 -74 43 -19 11 -39 18 -44 15 -6 -3 -7 -2 -4 4 5 9 -65 50 -87
51 -5 0 -13 7 -18 16 -5 9 -14 16 -20 16 -6 0 -19 6 -27 14 -9 8 -23 16 -31
18 -8 2 -19 7 -25 11 -32 25 -175 104 -180 99 -3 -3 -5 -1 -5 4 0 5 -17 18
-37 29 -21 10 -47 26 -57 35 -17 13 -18 13 -12 0 5 -9 2 -8 -7 2 -8 10 -17 15
-20 11 -4 -3 -7 -2 -7 3 0 5 -17 18 -37 29 -21 10 -45 25 -53 31 -8 7 -22 14
-30 16 -8 2 -17 6 -20 9 -10 12 -205 122 -217 122 -7 0 -13 4 -13 8 0 9 -111
72 -127 72 -7 0 -10 3 -8 7 4 6 -58 41 -71 39 -4 0 -10 4 -13 9 -7 11 -246
149 -246 142 0 -3 -11 5 -24 17 -13 12 -28 20 -33 17 -4 -3 -8 -1 -8 5 0 5
-10 13 -21 16 -12 4 -17 10 -11 14 12 7 7160 7 7167 -1z"/>
</g>
</svg>
